<svg width="24" height="24" viewBox="0 0 24 24" fill="none" xmlns="http://www.w3.org/2000/svg">
<path d="M12 24C18.6274 24 24 18.6274 24 12C24 5.37258 18.6274 0 12 0C5.37258 0 0 5.37258 0 12C0 18.6274 5.37258 24 12 24Z" fill="black"/>
<path d="M17.7485 14.9103C17.5331 15.3994 17.278 15.8496 16.9826 16.2635C16.5798 16.8278 16.25 17.2185 15.9959 17.4354C15.6019 17.7914 15.1798 17.9737 14.7278 17.9841C14.4033 17.9841 14.012 17.8934 13.5565 17.7093C13.0995 17.5261 12.6795 17.4354 12.2955 17.4354C11.8927 17.4354 11.4608 17.5261 10.9987 17.7093C10.536 17.8934 10.1632 17.9893 9.87824 17.9988C9.44479 18.0169 9.01275 17.8294 8.5815 17.4354C8.30626 17.1994 7.96198 16.795 7.54955 16.2221C7.10705 15.6102 6.74325 14.9007 6.45824 14.0919C6.15301 13.2182 6 12.3722 6 11.5531C6 10.6149 6.2063 9.80568 6.61952 9.12756C6.94428 8.58288 7.37632 8.15321 7.91705 7.83779C8.45778 7.52236 9.04203 7.36163 9.67123 7.35134C10.0155 7.35134 10.467 7.456 11.028 7.66167C11.5875 7.86803 11.9467 7.97268 12.1042 7.97268C12.222 7.97268 12.621 7.85032 13.2975 7.60636C13.9373 7.38012 14.4772 7.28645 14.9195 7.32335C16.1181 7.4184 17.0186 7.88272 17.6175 8.71924C16.5455 9.35752 16.0152 10.2515 16.0258 11.3983C16.0355 12.2916 16.3652 13.035 17.0133 13.6252C17.3071 13.8992 17.6351 14.1109 18 14.2613C17.9209 14.4868 17.8373 14.7028 17.7485 14.9103V14.9103ZM14.9996 4.28008C14.9996 4.98024 14.7393 5.63398 14.2204 6.23907C13.5943 6.95841 12.837 7.37407 12.0157 7.30848C12.0053 7.22448 11.9992 7.13608 11.9992 7.04318C11.9992 6.37103 12.297 5.65169 12.8257 5.06354C13.0897 4.76574 13.4255 4.51813 13.8326 4.32061C14.2389 4.12603 14.6232 4.01843 14.9846 4C14.9952 4.0936 14.9996 4.18721 14.9996 4.28007V4.28008Z" fill="white"/>
</svg>
