<svg width="594" height="354" viewBox="0 0 594 354" fill="none" xmlns="http://www.w3.org/2000/svg">
<path opacity="0.4" d="M417.183 231H68.8165C47.9337 231 31 211.293 31 186.989V64.0106C31 39.7073 47.9337 20 68.8165 20H417.183C438.066 20 455 39.7073 455 64.0106V186.989C455 211.293 438.066 231 417.183 231Z" fill="#F5F5FA"/>
<path d="M490.892 215.248L369.247 209.758V21.1539L490.892 13.8951V215.248Z" fill="#F5F5FA"/>
<path d="M467.402 260.196L465.417 260.059V5.30404L467.402 5.17953V260.196Z" fill="white"/>
<path d="M428.259 249.762L426.358 249.637V0.124507L428.259 0V249.762Z" fill="white"/>
<path d="M393.337 246.973L391.508 246.848V2.02948L393.337 1.90497V246.973Z" fill="white"/>
<path d="M495.602 23.4696L367.131 30.4794V28.3752L495.602 21.2161V23.4696Z" fill="white"/>
<path d="M496.547 60.0499L367.944 64.6193V62.5276L496.547 57.8088V60.0499Z" fill="white"/>
<path d="M497.48 96.6799L368.77 98.7965V96.6923L497.48 94.4263V96.6799Z" fill="white"/>
<path d="M498.425 133.335L369.583 133.011V130.907L498.425 131.081V133.335Z" fill="white"/>
<path d="M499.369 170.015L370.407 167.238V165.134L499.369 167.761V170.015Z" fill="white"/>
<g opacity="0.2">
<path opacity="0.3" d="M307.595 20.1769H241.482V213.888H307.595V20.1769Z" fill="#545490"/>
</g>
<path d="M607.875 296.594H492.662V14.2248C545.469 9.7978 598.263 5.35754 651.07 0.930573C651.333 83.1153 651.596 165.3 651.871 247.498C651.954 274.578 632.228 296.594 607.875 296.594Z" fill="#F5F5FA"/>
<path d="M497.923 7.04593H490.63V225.071H497.923V7.04593Z" fill="white"/>
<path d="M657.683 85.7746L496.399 92.649L496.729 102.214L658.013 95.3397L657.683 85.7746Z" fill="white"/>
<path d="M572.165 0H568.817V93.1923H572.165V0Z" fill="white"/>
<path d="M74.7735 228.518H64.0735C59.9011 206.8 57.3786 181.359 59.0045 152.985C60.2598 131.172 63.7508 111.322 68.234 93.7704C69.023 93.7704 69.8121 93.7704 70.6131 93.7704C65.7831 115.057 62.603 140.761 64.4442 169.818C65.831 191.727 69.824 211.433 74.7735 228.518Z" fill="#545490"/>
<path d="M92.3351 224.316C90.9363 224.076 89.3582 224.196 88.3181 222.747C87.3617 221.406 87.2541 219.251 86.7879 217.42C85.4967 212.427 81.4558 210.308 77.8931 210.428C74.3185 210.548 70.8395 212.283 67.2649 212.355C65.0053 212.391 62.7697 211.757 60.5101 211.697C56.3018 211.577 52.1055 211.876 50.109 215.696C48.4592 218.832 50.097 221.047 48.77 225.178C46.2833 232.924 38.4526 231.726 37.9385 236.192C37.5201 239.843 42.1707 244.86 45.1954 246.165C51.6034 248.93 58.3821 249.745 65.0053 248.547C69.094 247.805 73.2186 246.308 77.2714 247.386C79.1604 247.889 80.9537 248.942 82.8067 249.673C88.5333 251.935 94.7859 251.002 100.118 247.123C100.118 247.123 100.13 247.123 100.13 247.111C106.502 242.394 96.8781 225.082 92.3351 224.316Z" fill="white"/>
<path opacity="0.6" d="M511.358 252.368L494.704 243.652C517.515 199.248 540.325 154.843 563.124 110.449C570.01 111.503 576.909 112.545 583.795 113.598L511.358 252.368Z" fill="white"/>
<path opacity="0.6" d="M497.92 214.584C496.533 205.808 495.158 197.045 493.771 188.269C506.42 163.462 519.057 138.668 531.706 113.862C537.05 115.226 542.394 116.603 547.738 117.968C531.132 150.185 514.526 182.379 497.92 214.584Z" fill="white"/>
<path opacity="0.24" d="M639.182 116.316L625.621 109.217L553.173 247.993L566.734 255.092L639.182 116.316Z" fill="white"/>
<path opacity="0.6" d="M407.352 30.8748L402.065 28.107L348.748 130.237L354.035 133.005L407.352 30.8748Z" fill="white"/>
<path opacity="0.24" d="M499.285 137.428L493.998 134.661L440.681 236.79L445.968 239.558L499.285 137.428Z" fill="white"/>
<path opacity="0.6" d="M480.446 36.5946L458.165 24.9299L385.716 163.706L407.997 175.371L480.446 36.5946Z" fill="white"/>
<path opacity="0.2" d="M288.604 13.9449L283.317 11.1771L230 113.307L235.287 116.075L288.604 13.9449Z" fill="white"/>
<path opacity="0.2" d="M361.698 19.6648L339.417 8L266.968 146.776L289.249 158.441L361.698 19.6648Z" fill="white"/>
<path opacity="0.6" d="M558.31 5.3213L551.004 1.49625L503.998 91.5357L511.304 95.3607L558.31 5.3213Z" fill="white"/>
<path opacity="0.6" d="M592.589 7.27357L578.695 0L531.69 90.0395L545.583 97.3131L592.589 7.27357Z" fill="white"/>
<path opacity="0.24" d="M638.716 32.3321L631.936 28.7822L588.311 112.345L595.092 115.895L638.716 32.3321Z" fill="white"/>
<path d="M451.831 209.002H88.8682V169.254C88.8682 153.655 101.505 141 117.083 141H423.616C439.194 141 451.831 153.655 451.831 169.254V209.002Z" fill="#7070A4"/>
<path d="M171.239 145.789H170.044V199.424H171.239V145.789Z" fill="#F5F5FA"/>
<path d="M383.447 146.866H382.251V200.502H383.447V146.866Z" fill="#B3DEE5"/>
<path d="M100.473 173.089L100.457 174.286L163.933 175.124L163.949 173.927L100.473 173.089Z" fill="#F5F5FA"/>
<path d="M445.135 170.092H390.619V171.29H445.135V170.092Z" fill="#F5F5FA"/>
<path d="M359.179 174.407L184.512 175.362L184.518 176.559L359.185 175.604L359.179 174.407Z" fill="#F5F5FA"/>
<path d="M275.146 145.672L273.95 145.684L274.548 207.34L275.743 207.329L275.146 145.672Z" fill="#B3DEE5"/>
<path d="M455.645 207.087H75.2393V265.511H455.645V207.087Z" fill="#545490"/>
<path d="M87.7922 261.919C80.7266 261.919 75 256.185 75 249.109V205.411C75 198.335 80.7266 192.6 87.7922 192.6C94.8578 192.6 100.584 198.335 100.584 205.411V249.109C100.584 256.185 94.8578 261.919 87.7922 261.919Z" fill="#F5F5FA"/>
<path d="M446.451 260.004C439.386 260.004 433.659 254.269 433.659 247.194V203.495C433.659 196.419 439.386 190.685 446.451 190.685C453.517 190.685 459.243 196.419 459.243 203.495V247.194C459.243 254.269 453.517 260.004 446.451 260.004Z" fill="#F5F5FA"/>
<path d="M431.65 216.449C425.697 215.276 419.312 213.671 412.629 211.469C406.676 209.505 401.2 207.314 396.215 205.027C396.633 200.334 397.506 194.217 399.395 187.237C401.631 179 404.512 172.403 406.867 167.734C411.9 168.536 417.172 169.59 422.624 170.978C430.503 172.978 437.724 175.396 444.275 177.994C442.96 184.124 441.119 191.247 438.501 199.005C436.277 205.614 433.91 211.445 431.65 216.449Z" fill="#BCDDC9"/>
<path d="M402.778 215.551C395.462 214.114 387.619 212.139 379.394 209.433C372.077 207.027 365.346 204.321 359.201 201.508C359.703 195.737 360.779 188.218 363.111 179.634C365.86 169.506 369.399 161.389 372.304 155.654C378.497 156.636 384.977 157.941 391.684 159.641C401.379 162.107 410.25 165.076 418.296 168.273C416.682 175.815 414.423 184.555 411.195 194.109C408.469 202.214 405.552 209.385 402.778 215.551Z" fill="#F5F5FA"/>
<path d="M573.815 229.31C580.689 259.743 597.761 281.868 611.928 278.731C626.107 275.582 632.025 248.369 625.151 217.924C618.276 187.479 587.037 168.503 587.037 168.503C587.037 168.503 566.94 198.876 573.815 229.31Z" fill="#545490"/>
<path d="M595.537 231.872C589.751 268.004 611.055 301.813 611.055 301.813C611.055 301.813 641.757 277.043 647.543 240.911C653.329 204.779 632.025 170.969 632.025 170.969C632.025 170.969 601.336 195.74 595.537 231.872Z" fill="#545490"/>
<path d="M545.099 303.322L459.702 275.57C446.3 271.212 439.115 257.265 443.658 244.419C448.201 231.572 462.762 224.688 476.164 229.046L561.561 256.798C574.963 261.156 582.148 275.103 577.605 287.95C573.062 300.796 558.512 307.68 545.099 303.322Z" fill="#F5F5FA"/>
<path d="M527.297 267.118H449.325C446.228 267.118 443.682 264.58 443.682 261.467C443.682 242.802 458.925 227.538 477.563 227.538H527.297C530.393 227.538 532.94 230.076 532.94 233.189V261.467C532.94 264.568 530.393 267.118 527.297 267.118Z" fill="#545490"/>
<path d="M626.478 276.516L495.615 244.347L507.104 201.426C510.511 188.7 524.033 181.038 537.303 184.294L635.181 208.358C640.119 209.568 643.096 214.392 641.829 219.133L626.478 276.516Z" fill="#7070A4"/>
<path d="M543.831 282.694L455.027 252.859L507.667 244.083L594.641 267.333L543.831 282.694Z" fill="#545490"/>
<path d="M547.131 333.707L444.255 291.924L443.347 263.119C443.072 254.475 452.23 248.453 460.539 251.817L547.131 286.764V333.707Z" fill="#545490"/>
<path d="M575.931 193.764C567.383 198.278 561.92 206.395 558.225 215.111C553.802 225.562 550.61 236.637 546.963 247.376C546.665 248.262 548.063 248.645 548.362 247.759C551.77 237.702 554.866 227.454 558.775 217.565C562.398 208.43 567.742 199.714 576.661 195.009C577.485 194.59 576.756 193.333 575.931 193.764Z" fill="#F5F5FA"/>
<path d="M518.474 214.871C527.99 218.092 537.495 221.324 547.011 224.545C547.896 224.844 548.279 223.443 547.394 223.144C537.877 219.924 528.373 216.691 518.857 213.471C517.972 213.159 517.589 214.572 518.474 214.871Z" fill="#B3DEE5"/>
<path d="M567.144 228.065C577.031 231.644 586.918 235.236 596.805 238.816C597.69 239.139 598.061 237.726 597.188 237.415C587.301 233.835 577.414 230.244 567.527 226.664C566.654 226.341 566.271 227.741 567.144 228.065Z" fill="#F5F5FA"/>
<path d="M630.137 317.138L549.283 334.414C547.442 334.809 545.732 333.288 542.827 329.242V279.904C545.732 270.327 553.348 260.342 563.94 258.079L618.528 248.13C624.601 247.029 630.137 252.033 630.137 258.642V317.138Z" fill="#545490"/>
<path d="M626.657 277.57L555.774 289.698C553.216 290.141 550.86 288.189 550.86 285.615C550.86 273.535 559.839 263.203 572.165 261.084L625.222 251.997C627.781 251.554 630.136 253.506 630.136 256.08V273.475C630.136 275.499 628.665 277.223 626.657 277.57Z" fill="#F5F5FA"/>
<path d="M631.105 317.677L551.291 334.198V304.519C551.291 297.839 555.834 292.176 562.17 290.967L630.626 277.941L631.105 317.677Z" fill="#F5F5FA"/>
<path d="M526.066 262.09C513.859 264.747 505.216 263.55 493.141 262.988C487.809 262.736 480.671 262.569 472.075 262.82C467.054 262.964 464.424 256.906 467.951 253.326C467.987 253.29 468.035 253.242 468.07 253.206C471.669 249.627 471.525 248.956 473.044 248.621L535.893 238.72C536.359 239.187 544.847 248.022 540.95 254.99C540.46 255.876 538.248 259.432 526.066 262.09Z" fill="#414176"/>
<path d="M471.035 319.939L465.033 320.155C466.444 310.697 467.496 299.886 467.723 287.938C467.926 277.091 467.424 267.154 466.54 258.318C466.324 256.199 466.755 254.056 467.843 252.237C468.751 250.704 469.995 249.591 471.477 249.208C473.414 248.705 475.398 250.261 478.232 250.8C479.272 250.991 480.694 251.578 482.237 253.338C482.56 260.437 482.452 268.459 481.543 277.199C479.738 294.546 475.363 309.009 471.035 319.939Z" fill="#414176"/>
<path d="M471.381 324.333L461.171 322.992L465.929 317.76L471.728 318.527L471.381 324.333Z" fill="#D4D4E3"/>
<path d="M471.214 328.631C470.544 328.691 469.54 328.715 468.345 328.559C466.169 328.26 466.025 327.697 464.244 327.338C461.411 326.776 459.856 327.841 457.047 327.278C456.126 327.099 455.254 326.787 455.254 326.787C454.907 326.692 454.488 326.536 454.046 326.297C453.771 326.141 453.508 325.973 453.293 325.806C452.659 325.327 452.743 324.297 453.436 323.914C453.699 323.77 453.974 323.627 454.273 323.495C456.09 322.705 457.728 322.585 458.804 322.609C459.785 321.831 461.231 320.981 462.857 321.161C463.945 321.28 464.555 321.819 465.427 322.25C466.683 322.885 468.655 323.423 471.668 322.825C472.947 323.866 473.438 325.542 472.935 326.871C472.493 328.045 471.477 328.523 471.214 328.631Z" fill="#414176"/>
<path d="M545.325 263.071C532.126 268.531 528.157 267.812 513.093 269.836C507.797 270.542 500.756 271.655 492.339 273.439C487.425 274.481 483.755 268.986 486.589 264.831C486.624 264.783 486.66 264.736 486.684 264.688C489.589 260.521 489.326 259.887 490.761 259.288L550.824 238.301C551.972 238.899 554.351 240.336 555.941 243.162C558.894 248.417 556.563 253.901 556.276 254.571C554.59 258.354 551.219 260.629 545.325 263.071Z" fill="#414176"/>
<path d="M501.498 329.841L495.639 331.134C495.34 321.58 494.444 310.745 492.543 298.952C490.809 288.249 488.538 278.563 486.099 270.027C485.513 267.98 485.549 265.801 486.29 263.802C486.912 262.126 487.94 260.809 489.327 260.174C491.144 259.336 493.368 260.509 496.249 260.533C497.313 260.545 498.82 260.857 500.637 262.317C502.215 269.249 503.542 277.163 504.211 285.914C505.526 303.286 503.805 318.299 501.498 329.841Z" fill="#414176"/>
<path d="M502.621 334.091L492.327 334.605L496.081 328.607L501.915 328.32L502.621 334.091Z" fill="#D4D4E3"/>
<path d="M503.218 338.365C502.573 338.544 501.581 338.748 500.373 338.808C498.185 338.903 497.934 338.365 496.117 338.341C493.236 338.293 491.885 339.622 489.028 339.574C488.095 339.562 487.174 339.406 487.174 339.406C486.816 339.37 486.373 339.299 485.907 339.143C485.608 339.047 485.321 338.927 485.07 338.796C484.365 338.437 484.257 337.407 484.879 336.904C485.106 336.713 485.357 336.533 485.632 336.341C487.27 335.24 488.872 334.833 489.924 334.665C490.749 333.731 492.016 332.63 493.654 332.522C494.754 332.45 495.448 332.857 496.38 333.145C497.731 333.552 499.763 333.731 502.621 332.594C504.067 333.384 504.844 334.953 504.593 336.353C504.378 337.551 503.458 338.209 503.218 338.365Z" fill="#414176"/>
<path d="M504.995 228.844C505.545 229.993 506.394 230.675 506.908 231.011L508.486 231.777C509.825 232.938 511.009 233.309 511.905 233.393C515.874 233.776 520.406 229.323 523.514 221.912C524.016 220.703 524.494 219.422 524.913 218.069C525.678 215.531 526.443 212.981 527.22 210.442L515.444 204.72C515.121 207.066 513.782 210.538 512.013 214.633C511.547 215.71 511.056 216.824 510.542 217.973C509.156 221.086 506.968 221.984 505.402 223.325C505.258 223.6 503.752 226.234 504.995 228.844Z" fill="#D4D4E3"/>
<path d="M463.151 220.26C464.395 220.451 465.423 220.439 466.14 220.379C467.67 220.26 469.332 220.14 470.205 218.943C470.492 218.548 470.623 218.141 470.683 217.865C470.827 216.237 470.97 214.609 471.101 212.981C471.245 212.753 471.09 212.466 470.827 212.466C469.356 212.478 466.738 212.969 466.009 213.328C463.869 214.417 462.422 215.112 462.075 216.668C461.705 218.32 462.805 219.829 463.151 220.26Z" fill="#D4D4E3"/>
<path d="M468.901 218.153C473.361 220.511 479.267 225.252 488.592 229.406C496.124 232.759 511.713 234.638 514.618 232.531C519.652 228.892 518.408 217.422 514.379 216.034C512.634 215.435 510.087 219.972 508.76 220.511C504.958 222.056 495.562 221.804 471.508 212.729C470.934 212.514 470.288 212.849 470.133 213.448C469.726 215.016 469.308 216.584 468.901 218.153Z" fill="#D4D4E3"/>
<path d="M527.107 187.42C533.013 192.568 531.279 203.271 530.873 205.737C530.765 206.42 530.263 209.281 528.589 212.358C527.489 214.381 526.652 215.052 526.318 215.315C524.56 216.62 522.695 216.512 521.894 216.476C521.296 216.441 518.834 216.249 516.646 214.166C514.601 212.214 513.956 209.712 513.621 208.323C511.684 200.302 514.338 186.474 520.734 185.109C523.723 184.475 526.377 186.785 527.107 187.42Z" fill="#BCDDC9"/>
<path d="M546.7 246.43C543.341 246.801 538.523 247.017 532.832 246.191C529.592 245.724 519.251 244.215 518.725 240.444C518.51 238.923 520.088 238.421 522.24 234.697C522.24 234.697 524.38 231.022 525.288 226.281C525.874 223.24 525.97 218.858 523.71 213.111C519.37 201.75 516.537 191.226 520.028 187.299C522.132 184.929 530.549 179.398 540.543 182.031C541.894 182.391 544.835 183.444 546.067 183.612C547.453 183.959 553.431 185.982 556.324 192.567C557.436 195.093 558.404 197.571 559.134 200.409C559.433 201.558 559.935 203.749 560.269 206.79C561.322 216.32 559.301 221.564 556.743 238.528C556.539 239.857 556.193 242.204 554.352 244.036C552.008 246.37 548.565 246.514 546.7 246.43Z" fill="#BCDDC9"/>
<path d="M546.987 233.261C547.919 234.135 548.959 234.458 549.557 234.578L551.314 234.721C552.988 235.32 554.22 235.224 555.092 234.985C558.93 233.895 561.536 228.101 561.751 220.067C561.787 218.762 561.763 217.397 561.668 215.973C561.465 213.327 561.261 210.669 561.058 208.023L548.003 206.97C548.553 209.268 548.565 212.992 548.397 217.457C548.35 218.631 548.302 219.84 548.242 221.109C548.087 224.509 546.365 226.137 545.385 227.969C545.325 228.28 544.882 231.273 546.987 233.261Z" fill="#D4D4E3"/>
<path d="M513.105 244.742C518.126 244.251 525.658 244.933 535.725 243.233C543.854 241.869 557.89 234.805 559.145 231.453C561.333 225.646 553.98 216.763 549.856 217.84C548.074 218.307 548.445 223.503 547.644 224.676C545.325 228.065 537.351 233.057 512.292 238.792C511.695 238.935 511.348 239.57 511.539 240.145C512.065 241.677 512.591 243.209 513.105 244.742Z" fill="#D4D4E3"/>
<path d="M552.044 186.844C559.409 189.502 561.668 200.097 562.194 202.54C562.338 203.21 562.912 206.072 562.469 209.532C562.17 211.818 561.644 212.752 561.417 213.111C560.258 214.955 558.476 215.542 557.711 215.793C557.149 215.985 554.77 216.691 551.984 215.554C549.366 214.476 547.872 212.381 547.047 211.208C542.337 204.431 539.802 190.58 545.266 186.988C547.824 185.324 551.136 186.521 552.044 186.844Z" fill="#BCDDC9"/>
<path d="M544.082 185.443C538.559 190.711 528.457 190.496 528.038 189.658C528.205 189.49 528.48 184.198 528.504 179.948C528.528 177.602 528.48 175.578 528.301 174.908C531.457 172.19 534.613 169.461 537.77 166.743C537.543 168.587 537.303 172.214 538.475 176.261C538.941 177.877 539.647 179.565 540.663 181.229C541.739 182.989 542.958 184.378 544.082 185.443Z" fill="#D4D4E3"/>
<path d="M530.572 177.254C530.405 177.278 530.238 177.278 530.07 177.266C529.257 177.219 526.723 177.278 525.408 175.435C523.698 173.04 525.898 170.981 525.934 169.904C526.065 166.491 525.157 164.887 525.145 161.475C525.145 161.451 525.145 161.427 525.145 161.403C525.145 158.243 527.727 155.681 530.895 155.681H534.434C534.637 155.681 534.853 155.704 535.056 155.752C535.534 155.86 536.132 156.088 536.694 156.507C538.642 157.967 538.607 160.589 538.571 161.14C538.571 161.2 538.571 161.26 538.571 161.319V167.808C538.583 168.383 538.63 172.442 535.414 175.183C533.585 176.74 531.577 177.135 530.572 177.254Z" fill="#545490"/>
<path d="M534.877 159.619H531.231C527.022 159.619 523.567 156.171 523.567 151.945V151.646C523.567 150.521 524.488 149.599 525.612 149.599H531.207C534.973 149.599 539.623 154.603 538.308 158.817C538.296 160.577 536.611 159.619 534.877 159.619Z" fill="#545490"/>
<path d="M529.449 170.957H528.828C527.094 170.957 525.672 170.586 525.672 168.85C525.672 168.227 525.325 164.744 525.145 164.109C524.942 163.415 523.926 156.207 526.724 156.207C526.987 156.207 526.903 157.057 527.513 157.261C528.302 157.524 529.868 157.213 530.633 156.758L530.752 156.686C531.697 156.112 532.821 155.86 533.909 156.004C535.295 156.195 536.144 158.135 536.192 160.709C536.192 160.865 536.204 161.02 536.24 161.176L536.67 163.391C536.706 163.582 536.73 163.774 536.718 163.965C536.563 167.832 533.359 170.957 529.449 170.957Z" fill="#D4D4E3"/>
<path d="M536.658 163.702C537.186 163.702 537.614 163.032 537.614 162.205C537.614 161.379 537.186 160.709 536.658 160.709C536.129 160.709 535.701 161.379 535.701 162.205C535.701 163.032 536.129 163.702 536.658 163.702Z" fill="#D4D4E3"/>
<path d="M540.46 252.739L501.94 260.665L463.814 250.381L498.473 243.82L540.46 252.739Z" fill="#8383D0"/>
<path d="M500.493 260.27L464.508 250.572C464.089 250.465 463.778 250.118 463.743 249.71L460.156 214.404C460.084 213.746 460.718 213.231 461.399 213.375L497.624 220.642C498.078 220.738 498.425 221.097 498.461 221.528L501.796 259.264C501.88 259.947 501.198 260.462 500.493 260.27Z" fill="#545490"/>
<path d="M479.765 240.743C481.894 240.475 483.36 238.189 483.04 235.637C482.72 233.085 480.734 231.233 478.605 231.501C476.476 231.769 475.01 234.055 475.33 236.607C475.65 239.159 477.636 241.011 479.765 240.743Z" fill="white"/>
<path d="M289.853 199.259C290.211 205.186 287.796 213.818 282.225 215.063C276.355 216.38 268.752 209.077 268.333 201.343C267.867 192.806 276.188 184.581 282.118 185.815C287.091 186.868 289.554 194.375 289.853 199.259Z" fill="#1A5FC4"/>
<path d="M223.489 263.095L214.785 261.934L218.85 257.48L223.799 258.139L223.489 263.095Z" fill="#D4D4E3"/>
<path d="M223.346 266.759C222.772 266.807 221.911 266.831 220.895 266.687C219.042 266.436 218.922 265.945 217.392 265.645C214.977 265.167 213.65 266.064 211.259 265.586C210.482 265.43 209.729 265.167 209.729 265.167C209.43 265.083 209.071 264.951 208.701 264.747C208.461 264.616 208.246 264.472 208.055 264.328C207.517 263.921 207.589 263.035 208.186 262.712C208.414 262.592 208.653 262.473 208.904 262.365C210.446 261.695 211.857 261.599 212.765 261.623C213.602 260.964 214.834 260.234 216.232 260.402C217.165 260.509 217.679 260.964 218.42 261.335C219.496 261.886 221.17 262.341 223.74 261.838C224.828 262.724 225.247 264.161 224.816 265.298C224.434 266.256 223.561 266.675 223.346 266.759Z" fill="#414176"/>
<path d="M225.928 261.108C223.238 260.138 220.56 259.156 217.87 258.187C221.182 251.446 222.604 245.736 223.286 241.857C225.617 228.603 225.557 217.062 225.557 217.062C225.533 212.537 225.282 209.46 227.387 207.82C229.957 205.82 235.026 206.754 237.572 209.58C239.103 211.28 239.88 213.83 238.816 221.228C237.584 229.908 235.122 236.17 233.316 240.875C231.607 245.353 229.012 252.272 225.928 261.108Z" fill="#414176"/>
<path d="M225.653 210.693C225.557 209.903 225.617 209.208 225.737 208.622C225.737 208.622 225.832 208.203 225.976 207.784C227.972 202.348 242.247 198.158 242.247 198.158C246.347 196.973 249.695 196.135 251.966 195.596C260.61 193.537 263.204 193.501 265.512 190.891C266.707 189.526 267.245 188.125 268.74 187.898C270.545 187.622 271.155 189.454 273.761 190.58C277.862 192.363 280.695 189.322 283.385 191.573C285.334 193.201 285.872 195.344 286.051 196.075C287.51 202.001 282.154 206.826 281.879 207.077C279.213 209.304 276.702 210.058 275.411 210.346C273.378 210.801 271.633 210.705 269.457 210.597C267.425 210.489 265.751 210.226 264.555 209.999C264.555 209.999 258.924 210.298 253.748 210.908C246.814 211.723 239.521 213.375 233.782 214.871C230.005 215.853 226.334 213.961 225.653 210.693Z" fill="#414176"/>
<path d="M225.582 161.523C225.451 161.643 225.235 161.822 224.96 162.002C224.351 162.397 223.825 162.553 223.609 162.624C222.665 162.924 220.537 163.75 220.585 164.348C220.597 164.528 220.8 164.672 221.171 164.815C222.486 165.33 223.801 164.983 225.367 164.516C228.798 163.498 230.006 162.888 230.257 162.169C230.484 161.499 230.34 160.924 230.34 160.924C230.304 160.865 230.269 160.649 230.137 160.41C229.563 159.368 228.296 158.985 228.081 158.913C227.483 158.733 227.005 158.733 226.539 158.722C226.18 158.722 226.216 158.745 224.913 158.889C223.837 159.009 223.478 159.033 223.155 159.344C223.131 159.368 222.797 159.703 222.892 159.919C222.952 160.05 223.143 160.05 223.609 160.098C224.685 160.206 224.948 160.314 225.116 160.41C225.295 160.505 225.522 160.637 225.63 160.912C225.702 161.164 225.618 161.427 225.582 161.523Z" fill="#D4D4E3"/>
<path d="M225.833 162.373C228.786 164.935 232.408 169.437 238.721 174.249C243.814 178.14 255.303 182.69 257.885 181.852C262.357 180.403 263.504 172.226 260.707 170.43C259.499 169.652 256.738 172.25 255.638 172.346C252.469 172.621 245.392 170.478 228.81 159.188C228.415 158.913 227.865 159.021 227.638 159.392C227.017 160.386 226.431 161.379 225.833 162.373Z" fill="#D4D4E3"/>
<path d="M255.626 181.505C255.243 180.774 254.861 180.044 254.478 179.314C254.454 179.266 254.442 179.23 254.418 179.182C253.988 177.841 253.569 176.081 253.462 173.998C253.342 171.723 253.605 169.748 253.964 168.191C254.095 167.593 254.813 167.341 255.279 167.725C255.423 167.844 255.566 167.904 255.697 167.88C256.319 167.749 256.331 165.629 256.355 164.827C256.403 162.409 256.666 158.71 257.622 153.047C257.754 152.101 258.017 150.82 258.555 149.359C259.081 147.947 259.655 146.977 259.774 146.773C260.599 145.337 261.556 144.151 262.464 143.541C264.437 142.212 267.701 141.422 269.028 145.121C270.773 149.982 268.765 159.224 266.852 166.072C266.852 166.096 266.84 166.108 266.84 166.132C266.756 166.551 265.704 171.651 262.644 178.512C262.333 179.194 261.735 180.499 260.36 181.325C258.866 182.223 257.216 182.127 256.212 181.948C255.972 181.888 255.745 181.732 255.626 181.505Z" fill="#BCDDC9"/>
<path d="M288.264 188.987C286.53 189.969 281.64 192.459 275.244 191.645C271.275 191.142 268.322 189.562 266.684 188.508C268.657 181.05 267.808 175.495 267.509 171.831C266.804 163.115 264.413 155.824 261.926 150.305C260.324 146.761 262.368 142.655 266.146 141.769C270.45 140.775 274.754 139.769 279.046 138.776C282.382 137.998 285.705 140.105 286.446 143.457C287.905 150.113 288.921 155.285 288.144 167.09C287.809 172.166 287.582 179.661 288.264 188.987Z" fill="#BCDDC9"/>
<path d="M269.64 133.688C271.396 133.652 272.776 131.543 272.724 128.978C272.671 126.413 271.205 124.363 269.449 124.399C267.693 124.436 266.312 126.544 266.365 129.109C266.417 131.674 267.884 133.724 269.64 133.688Z" fill="#545490"/>
<path d="M262.739 134.574C263.672 134.19 264.736 133.676 265.848 132.993C267.139 132.215 268.203 131.389 269.04 130.647C271.407 134.083 273.786 137.531 276.153 140.967C272.698 143.9 268.801 143.864 268.801 143.864C268.358 142.451 267.593 140.548 266.23 138.524C265.047 136.764 263.767 135.471 262.739 134.574Z" fill="#D4D4E3"/>
<path d="M264.041 118.95C265.87 119.8 266.875 121.057 267.102 121.356C268.214 122.793 268.548 124.253 268.668 124.984C268.19 124.696 267.568 124.78 267.018 124.936C265.87 125.247 264.77 125.75 263.79 126.432C263.671 126.516 263.539 126.612 263.396 126.636C263.216 126.672 263.025 126.6 262.858 126.54C262.248 126.313 261.59 126.097 260.945 126.169C260.275 126.241 259.713 126.66 259.474 127.282C258.733 127.151 258.075 127.007 257.669 126.54C257.406 126.229 257.346 125.906 257.31 125.762C256.103 120.243 255.888 119.764 256.33 119.117C257.633 117.238 261.722 117.872 264.041 118.95Z" fill="#545490"/>
<path d="M259.81 131.916C260.193 132.011 260.515 132.466 260.444 132.802C260.384 133.113 259.989 133.185 260.025 133.424C260.049 133.58 260.205 133.58 260.372 133.891C260.48 134.083 260.444 134.119 260.539 134.238C260.707 134.466 260.922 134.454 261.089 134.574C261.46 134.837 261.221 135.424 261.4 135.807C261.723 136.501 263.432 136.429 264.544 136.214C265.202 136.082 267.593 135.639 268.896 133.472C269.518 132.419 269.685 131.173 269.793 129.952C269.972 127.893 269.96 125.618 268.657 124.014C267.509 122.613 265.572 122.051 263.767 122.206C261.711 122.386 259.487 123.679 259.296 125.918C259.236 126.612 259.439 126.995 259.427 127.582C259.427 127.761 259.38 127.965 259.308 128.396C259.153 129.306 259.069 129.773 258.961 130.024C258.662 130.766 258.304 130.874 258.387 131.269C258.447 131.592 258.746 131.892 259.057 131.964C259.392 132.047 259.511 131.844 259.81 131.916Z" fill="#D4D4E3"/>
<path d="M265.154 124.17C265.835 125.307 266.075 126.624 266.29 127.905C266.84 129.437 268.394 130.299 269.805 129.988C270.916 129.737 271.813 128.779 272.052 127.558C272.16 126.875 272.459 126.217 272.65 125.546C273.068 124.038 272.901 122.374 271.789 121.248C270.916 120.362 269.542 119.908 268.131 119.86C266.732 119.812 265.297 120.135 263.97 120.614C263.229 120.877 261.962 121.32 261.615 121.967C263.146 122.517 264.293 122.745 265.154 124.17Z" fill="#545490"/>
<path d="M268.98 127.989C269.148 128.659 268.741 129.354 268.072 129.521C267.402 129.689 266.709 129.282 266.542 128.611C266.374 127.941 266.781 127.247 267.45 127.079C268.12 126.911 268.813 127.318 268.98 127.989Z" fill="#D4D4E3"/>
<path d="M276.883 139.757C276.596 140.5 276.07 141.541 275.137 142.571C273.595 144.271 271.79 144.941 270.917 145.205C270.57 144.463 270.235 143.72 269.889 142.978L275.555 138.177L276.883 139.757Z" fill="#ECF5F7"/>
<path d="M265.226 186.533C264.903 186.198 264.568 185.851 264.245 185.515C264.114 185.108 263.958 184.402 264.138 183.6C264.508 181.984 265.979 181.157 266.816 180.691C267.796 180.14 268.609 180.008 269.697 179.841C270.438 179.721 270.773 179.745 271.12 179.876C271.371 179.972 271.598 180.14 272.387 181.145C273.104 182.079 273.463 182.546 273.427 182.81C273.331 183.372 272.59 183.324 271.478 184.198C270.45 185.013 270.618 185.432 269.589 186.162C269.147 186.473 268.454 186.964 267.461 187.048C266.385 187.144 265.572 186.736 265.226 186.533Z" fill="#D4D4E3"/>
<path d="M271.263 183.911C275.053 182.989 280.816 182.642 288.395 180.283C294.516 178.38 304.882 171.651 305.695 169.054C307.105 164.564 301.128 158.889 298.031 160.134C296.692 160.673 297.206 164.432 296.644 165.378C295.03 168.12 289.184 172.657 270.379 179.637C269.924 179.805 269.697 180.307 269.865 180.714C270.331 181.792 270.797 182.858 271.263 183.911Z" fill="#D4D4E3"/>
<path d="M307.476 169.94C306.651 169.904 305.838 169.856 305.013 169.82C304.966 169.82 304.918 169.808 304.87 169.796C303.507 169.485 301.774 168.958 299.921 167.988C297.9 166.946 296.346 165.701 295.186 164.6C294.744 164.181 294.887 163.439 295.461 163.223C295.64 163.163 295.76 163.067 295.808 162.948C296.011 162.349 294.194 161.26 293.512 160.829C291.456 159.56 288.408 157.452 284.02 153.753C283.279 153.154 282.298 152.28 281.318 151.071C280.362 149.898 279.824 148.916 279.716 148.701C278.903 147.264 278.365 145.827 278.305 144.738C278.162 142.356 279.142 139.147 282.992 139.877C288.061 140.847 294.983 147.264 299.921 152.376C299.932 152.388 299.944 152.4 299.968 152.412C300.291 152.7 304.141 156.195 308.492 162.313C308.923 162.924 309.736 164.109 309.748 165.713C309.76 167.449 308.839 168.838 308.17 169.616C307.978 169.844 307.727 169.951 307.476 169.94Z" fill="#BCDDC9"/>
<path d="M258.147 267.369L263.312 267.908L266.265 260.856L261.878 258.438L258.147 267.369Z" fill="#D4D4E3"/>
<path d="M265.943 263.035C264.915 262.784 263.803 262.545 262.607 262.365C260.766 262.09 259.081 261.97 257.574 261.946C258.387 260.018 259.439 257.396 260.527 254.248C261.388 251.758 263.695 245.041 265.106 237.223C267.079 226.376 265.883 221.54 268.537 210.358C269.278 207.257 270.199 203.27 273.367 201.809C275.352 200.9 277.719 201.163 279.417 202.085C284.091 204.599 283.768 211.986 283.72 212.812C283.625 214.524 283.147 216.463 282.19 220.342C281.843 221.743 281.545 222.845 281.341 223.587C281.341 223.587 279.823 229.058 278.173 233.967C276.631 238.564 272.506 249.255 265.943 263.035Z" fill="#414176"/>
<path d="M258.972 271.464L263.492 270.782C264.472 270.638 265.153 269.764 265.07 268.842C264.914 267.298 263.503 266.1 261.794 266.184L259.905 266.268C257.897 266.352 256.283 267.944 256.462 269.8C256.569 270.901 257.717 271.643 258.972 271.464Z" fill="#414176"/>
<path d="M270.031 208.753C270.33 212.13 276.2 215.183 281.233 214.787C282.094 214.716 283.839 214.56 285.573 213.387C288.621 211.327 289.219 207.616 289.673 204.503C290.618 198.194 289.602 190.256 286.9 189.682C286.027 189.502 285.776 190.256 282.596 191.238C280.001 192.04 279.75 191.669 278.746 192.292C277.407 193.13 277.347 194.123 275.411 198.074C275.028 198.864 274.299 200.217 272.864 202.923C270.222 207.879 269.971 207.999 270.031 208.753Z" fill="#414176"/>
<path d="M365.65 196.218C367.145 197.727 368.807 198.769 370.504 198.589C374.079 198.206 374.653 192.77 380.379 180.559C384.205 172.406 384.229 169.437 385.46 164.887C386.202 162.146 384.659 159.32 381.957 158.458L381.838 158.422C381.001 158.159 379.554 157.836 378.12 158.398C373.421 160.23 374.246 169.508 371.198 181.409C370.277 185.012 368.651 190.173 365.65 196.218Z" fill="#D4D4E3"/>
<path d="M328.003 191.07C328.242 191.897 329.318 192.184 329.509 192.232C330.119 192.399 330.513 192.28 332.593 191.657C333.777 191.298 334.901 190.783 336.096 190.472C336.503 190.364 337.124 190.22 337.591 189.682C337.937 189.299 338.045 188.879 338.093 188.712C338.308 187.862 338.129 186.701 337.495 186.186C337.065 185.827 336.479 185.683 332.031 187.431C329.736 188.329 328.983 188.688 328.409 189.55C328.206 189.837 327.823 190.448 328.003 191.07Z" fill="#D4D4E3"/>
<path d="M372.285 195.907C372.656 194.183 371.053 192.579 370.898 192.423C369.057 190.627 366.487 190.915 363.031 190.867C361.501 190.855 356.839 190.759 352.367 189.777C350.634 189.394 344.405 187.886 340.125 186.365C339.551 186.162 338.069 185.623 336.431 186.114C335.379 186.425 334.638 187.036 334.195 187.491L334.183 187.527C333.98 188.484 334.554 189.442 335.498 189.682C337.531 190.22 340.125 190.975 343.066 191.992C348.255 193.8 350.909 195.201 353.539 196.23C356.97 197.583 361.884 198.888 368.543 198.912C369.487 198.912 371.89 197.775 372.285 195.907Z" fill="#D4D4E3"/>
<path d="M317.278 278.156L319.311 278.288L319.92 272.589L317.9 272.458L317.278 278.156Z" fill="#D4D4E3"/>
<path d="M298.856 276.54C298.904 277.115 299.262 277.594 299.788 277.797C300.219 277.965 300.733 278.132 301.319 278.252C306.137 279.246 309.341 275.989 315.079 275.163C315.821 275.056 316.729 274.972 317.793 274.984C319.909 275.008 321.607 273.128 321.356 271.081L321.188 269.764C321.117 269.153 320.686 268.662 320.089 268.495C318.128 267.932 316.586 268.016 315.51 268.195C310.142 269.129 308.121 274.325 303.004 274.792C302.227 274.864 301.498 274.816 300.852 274.696C299.765 274.493 298.76 275.403 298.856 276.54Z" fill="#D4D4E3"/>
<path d="M309.294 272.23C309.437 272.41 309.7 272.47 309.927 272.362C311.063 271.835 312.414 271.296 313.98 270.853C315.582 270.398 317.041 270.159 318.32 270.027C318.798 269.979 319.001 269.381 318.631 269.093C317.818 268.471 317.017 267.86 316.204 267.25C316.048 267.13 315.821 267.106 315.63 267.214C314.59 267.776 313.442 268.459 312.247 269.297C311.171 270.039 310.226 270.793 309.389 271.512C309.162 271.703 309.126 272.015 309.294 272.23Z" fill="#D4D4E3"/>
<path d="M316.8 270.243C317.374 270.267 317.805 270.207 318.128 270.147C318.869 270.039 319.467 269.943 320.04 269.572C320.04 269.572 320.925 269.297 321.033 268.471C322.431 257.133 324.643 251.303 326.628 245.317C328.6 239.354 330.394 235.451 330.872 229.406C331.446 222.222 329.796 216.44 328.301 212.668C328.218 212.249 328.086 211.615 327.931 210.849C327.596 209.208 327.596 209.089 327.489 208.873C326.915 207.7 325.217 207.197 324.045 207.137C323.83 207.125 323.603 207.137 323.388 207.149C320.244 207.425 318.116 210.513 318.881 213.578C319.263 215.123 319.67 216.99 320.016 219.145C321.152 226.329 320.806 231.908 320.351 238.756C320.112 242.324 319.777 246.993 318.809 252.727C318.809 252.727 317.924 258.007 316.537 263.215C315.509 267.07 314.995 269.01 314.469 269.716C314.433 269.776 314.123 270.171 314.242 270.315C314.35 270.458 314.732 270.183 315.39 270.111C315.94 270.063 316.047 270.219 316.8 270.243Z" fill="#D4D4E3"/>
<path d="M343.593 277.33L345.577 276.827L344.406 271.212L342.445 271.715L343.593 277.33Z" fill="#D4D4E3"/>
<path d="M325.564 281.425C325.779 281.952 326.269 282.299 326.843 282.335C327.298 282.359 327.836 282.359 328.445 282.299C333.335 281.772 335.391 277.678 340.604 275.139C341.273 274.816 342.11 274.457 343.126 274.134C345.147 273.499 346.199 271.201 345.326 269.321L344.764 268.112C344.513 267.561 343.951 267.214 343.33 267.238C341.285 267.31 339.839 267.848 338.882 268.351C334.052 270.889 333.729 276.456 328.995 278.468C328.278 278.779 327.573 278.947 326.927 279.03C325.803 279.198 325.122 280.383 325.564 281.425Z" fill="#D4D4E3"/>
<path d="M334.172 274.134C334.364 274.265 334.627 274.241 334.818 274.074C335.727 273.224 336.862 272.29 338.213 271.392C339.6 270.47 340.915 269.788 342.087 269.273C342.529 269.081 342.541 268.447 342.099 268.291C341.142 267.956 340.186 267.609 339.23 267.274C339.038 267.202 338.823 267.262 338.68 267.417C337.855 268.267 336.982 269.273 336.097 270.434C335.308 271.476 334.627 272.482 334.053 273.415C333.885 273.667 333.945 273.978 334.172 274.134Z" fill="#D4D4E3"/>
<path d="M340.724 269.943C341.273 269.788 341.668 269.596 341.955 269.453C342.624 269.117 343.174 268.854 343.593 268.327C343.593 268.327 344.358 267.8 344.202 266.974C342.074 255.744 342.397 249.519 342.445 243.209C342.517 235.092 342.349 231.034 341.62 226.76C339.373 213.459 333.419 208.957 332.175 208.31C330.024 207.197 328.314 207.64 328.314 207.64C328.206 207.664 327.955 207.748 327.692 207.856C324.775 209.077 323.699 212.668 325.373 215.362C326.21 216.715 327.166 218.367 328.147 220.319C331.422 226.808 332.797 232.231 334.459 238.887C335.32 242.359 336.432 246.897 337.268 252.668C337.268 252.668 338.046 257.959 338.309 263.347C338.512 267.333 338.607 269.333 338.332 270.171C338.309 270.231 338.153 270.71 338.297 270.817C338.44 270.913 338.727 270.542 339.337 270.279C339.839 270.039 339.982 270.147 340.724 269.943Z" fill="#D4D4E3"/>
<path d="M344.656 229.669C346.103 229.19 348.255 228.532 350.873 227.873C370.874 222.809 379.004 227.622 385.424 221.408C389.489 217.469 390.852 211.052 390.326 206.682C390.027 204.24 389.178 202.731 388.891 202.252C386.667 198.553 382.722 197.416 381.479 197.104C379.446 195.129 377.534 194.159 376.218 193.632C374.222 192.842 370.588 191.897 352.547 196.626C349.917 197.32 347.992 197.859 344.776 198.541C339.767 199.607 339.205 199.391 335.212 200.217C328.027 201.702 323.723 202.66 320.985 206.203C319.634 207.951 319.084 209.783 318.833 210.992C320.136 210.597 322.264 210.142 324.811 210.513C329.425 211.196 332.366 214.189 333.658 215.542C336.144 218.14 335.977 219.445 338.679 223.204C340.843 226.209 343.078 228.328 344.656 229.669Z" fill="#BCDDC9"/>
<path d="M377.498 151.969C378.323 147.515 375.346 146.091 376.637 142.475C377.797 139.207 380.762 139.243 381.395 135.687C381.826 133.304 380.75 132.969 381.347 130.515C382.112 127.342 384.958 124.301 387.636 124.385C388.365 124.409 388.257 124.637 389.441 124.84C392.083 125.283 393.171 124.241 395.311 124.385C397.559 124.541 399.149 125.894 399.412 126.109C401.731 128.12 402.018 131.281 402.185 132.981C402.64 137.686 401.145 138.213 402.185 140.224C402.484 140.799 402.436 140.428 405.927 144.163C406.824 145.121 407.434 145.875 408.091 147.001C408.737 148.09 408.964 149.084 409.096 149.647C409.693 150.832 410.148 152.101 410.435 153.43C411.534 158.554 410.004 163.834 406.621 167.772C406.418 168.012 406.477 167.737 406.597 167.605C410.387 163.199 411.511 157.009 409.502 151.55C409.478 151.502 409.454 151.454 409.442 151.394C410.315 157.021 408.868 161.487 408.868 161.487C408.486 162.672 406.896 165.629 405.258 167.82C402.807 171.077 401.922 170.047 399.591 172.346C399.304 172.621 398.539 173.399 397.678 173.292C397.379 173.256 397.176 173.112 397.092 173.064C395.742 172.238 392.011 173.04 390.493 173.256C388.09 173.591 386.189 173.124 384.862 172.801C383.834 172.549 380.498 171.699 377.498 168.73C376.003 167.246 373.014 164.289 373.17 160.589C373.337 156.734 376.673 156.447 377.498 151.969Z" fill="#545490"/>
<path d="M376.948 180.499C376.087 188.448 370.684 191.166 371.915 195.787C372.847 199.259 376.936 200.959 379.208 201.893C380.439 202.396 385.867 204.647 388.892 202.252C390.996 200.588 390.924 197.487 391.043 195.189C391.88 179.613 403.62 174.01 400.153 164.229C398.982 160.912 396.866 159.248 396.292 158.638C393.686 155.776 388.856 155.118 385.257 156.531C382.974 157.416 381.742 158.877 379.746 161.236C378.156 163.115 377.02 164.229 376.35 166.12C375.346 168.934 375.86 171.604 376.338 173.172C376.817 174.932 377.283 177.494 376.948 180.499Z" fill="#545490"/>
<path d="M394.27 159.991C395.657 158.075 393.625 155.441 390.672 144.774C390.146 142.882 389.751 141.29 389.476 140.153L383.068 142.487C383.726 143.253 385.137 145.061 385.973 147.743C386.44 149.216 386.547 150.401 386.559 150.652C386.978 155.561 384.013 157.752 384.945 159.619C386.081 161.918 392.441 162.493 394.27 159.991Z" fill="#D4D4E3"/>
<path d="M387.181 147.001C390.172 147.001 392.597 143.05 392.597 138.177C392.597 133.304 390.172 129.354 387.181 129.354C384.19 129.354 381.766 133.304 381.766 138.177C381.766 143.05 384.19 147.001 387.181 147.001Z" fill="#D4D4E3"/>
<path d="M385.664 128.911C385.687 128.827 385.95 128.563 385.939 128.683C385.962 128.599 385.998 128.527 386.034 128.456C386.835 126.899 389.824 126.851 392.705 128.348C395.586 129.844 396.567 138.201 395.766 139.757C394.965 141.314 396.83 136.74 392.61 135.687C387.194 134.334 385.52 130.551 385.879 128.923C384.91 132.299 388.437 134.178 390.888 135.507C392.012 136.118 393.147 136.872 393.781 138.01C394.486 139.255 394.391 140.715 394.295 142.092C394.283 142.188 393.996 142.487 394.008 142.355C394.14 140.536 394.128 138.776 392.777 137.387C391.701 136.274 390.254 135.699 388.927 134.957C386.728 133.759 384.779 131.556 385.664 128.911Z" fill="#545490"/>
<path d="M384.42 200.05C385.914 201.558 387.576 202.6 389.274 202.42C392.848 202.037 393.422 196.602 399.149 184.39C402.975 176.237 402.998 173.268 404.23 168.718C404.971 165.977 403.429 163.151 400.727 162.289L400.607 162.253C399.771 161.99 398.324 161.667 396.889 162.229C392.191 164.061 393.016 173.34 389.967 185.24C389.047 188.844 387.421 194.004 384.42 200.05Z" fill="#D4D4E3"/>
<path d="M346.964 206.096C347.418 206.826 348.53 206.814 348.733 206.802C349.367 206.79 349.714 206.574 351.543 205.413C352.583 204.755 353.527 203.941 354.591 203.318C354.95 203.102 355.512 202.803 355.823 202.157C356.05 201.69 356.038 201.259 356.038 201.091C356.014 200.217 355.524 199.152 354.783 198.816C354.268 198.589 353.671 198.613 349.869 201.498C347.908 202.983 347.275 203.533 346.952 204.527C346.832 204.85 346.617 205.545 346.964 206.096Z" fill="#D4D4E3"/>
<path d="M390.911 198.769C390.804 197.009 388.831 195.895 388.628 195.787C386.368 194.554 383.977 195.524 380.63 196.422C379.147 196.817 374.64 197.99 370.061 198.254C368.28 198.35 361.884 198.589 357.353 198.29C356.743 198.254 355.177 198.134 353.731 199.044C352.81 199.631 352.26 200.421 351.949 200.983V201.019C352.009 202.001 352.822 202.755 353.802 202.743C355.906 202.707 358.608 202.731 361.717 202.923C367.204 203.258 370.133 203.893 372.943 204.168C376.613 204.539 381.694 204.479 388.114 202.683C389.011 202.432 391.019 200.672 390.911 198.769Z" fill="#D4D4E3"/>
<path d="M354.292 208.993L367.706 207.017L367.718 205.413L345.768 205.126L354.292 208.993Z" fill="#8383D0"/>
<path d="M316.226 208.263L356.683 208.897C357.317 208.909 357.819 208.418 357.759 207.855L355.069 181.181C355.021 180.69 354.567 180.319 354.017 180.307L313.56 179.673C312.927 179.661 312.425 180.152 312.484 180.714L315.174 207.389C315.234 207.879 315.676 208.251 316.226 208.263Z" fill="#545490"/>
<path d="M336.043 198.767C338.367 197.95 339.59 195.402 338.775 193.075C337.959 190.748 335.415 189.523 333.091 190.339C330.767 191.156 329.544 193.704 330.359 196.031C331.174 198.358 333.719 199.583 336.043 198.767Z" fill="white"/>
<path d="M126.113 124.074C122.132 123.188 117.027 124.876 115.449 128.24C113.978 131.377 116.668 133.664 114.66 136.872C114.433 137.243 112.735 139.961 110.511 139.949C109.507 139.949 109.125 139.805 109.017 139.997C108.658 140.643 112.388 144.199 117.147 146.103C121.869 147.994 125.719 147.48 126.83 147.3C128.863 146.965 132.007 146.055 131.971 145.145C131.959 144.858 131.636 144.726 131.254 144.427C129.305 142.87 129.461 139.554 129.496 138.848C129.592 136.86 130.369 135.148 131.015 133.771C131.505 132.754 131.804 132.383 131.971 131.497C132.354 129.449 131.421 127.725 131.254 127.426C129.843 124.912 126.998 124.277 126.113 124.074Z" fill="#545490"/>
<path d="M187.587 271.452L185.555 271.584L184.945 265.885L186.966 265.753L187.587 271.452Z" fill="#414176"/>
<path d="M206.011 269.836C205.963 270.41 205.604 270.889 205.078 271.093C204.648 271.26 204.134 271.428 203.548 271.548C198.73 272.541 195.526 269.285 189.788 268.459C189.046 268.351 188.138 268.267 187.074 268.279C184.958 268.303 183.26 266.424 183.511 264.376L183.678 263.059C183.75 262.449 184.181 261.958 184.778 261.79C186.739 261.228 188.281 261.311 189.357 261.491C194.725 262.425 196.746 267.621 201.862 268.088C202.64 268.16 203.369 268.112 204.014 267.992C205.102 267.788 206.107 268.698 206.011 269.836Z" fill="#414176"/>
<path d="M195.574 265.526C195.431 265.705 195.168 265.765 194.94 265.657C193.805 265.131 192.454 264.592 190.888 264.149C189.286 263.694 187.827 263.454 186.548 263.323C186.07 263.275 185.866 262.676 186.237 262.389C187.05 261.766 187.851 261.156 188.664 260.545C188.819 260.425 189.046 260.402 189.238 260.509C190.278 261.072 191.426 261.754 192.621 262.592C193.697 263.335 194.642 264.089 195.478 264.807C195.706 264.999 195.753 265.31 195.574 265.526Z" fill="#D4D4E3"/>
<path d="M188.066 263.538C187.492 263.562 187.062 263.502 186.739 263.443C185.998 263.335 185.4 263.239 184.826 262.868C184.826 262.868 183.941 262.593 183.834 261.766C182.435 250.429 180.223 244.598 178.239 238.612C176.266 232.65 174.473 228.747 173.995 222.701C173.421 215.518 175.071 209.735 176.565 205.964C176.649 205.545 176.78 204.91 176.936 204.144C177.27 202.504 177.27 202.384 177.378 202.169C177.952 200.995 179.65 200.493 180.821 200.433C181.036 200.421 181.264 200.433 181.479 200.445C184.623 200.72 186.751 203.809 185.986 206.874C185.603 208.418 185.197 210.286 184.85 212.441C183.714 219.624 184.061 225.203 184.515 232.051C184.754 235.619 185.089 240.288 186.058 246.023C186.058 246.023 186.942 251.303 188.329 256.511C189.357 260.366 189.871 262.305 190.397 263.012C190.433 263.071 190.744 263.466 190.624 263.61C190.517 263.754 190.134 263.478 189.477 263.407C188.939 263.359 188.831 263.514 188.066 263.538Z" fill="#D4D4E3"/>
<path d="M173.899 271.739L171.866 271.632L171.938 265.897L173.958 266.005L173.899 271.739Z" fill="#414176"/>
<path d="M192.382 272.314C192.262 272.877 191.856 273.308 191.306 273.451C190.863 273.571 190.337 273.667 189.728 273.727C184.826 274.146 182.028 270.53 176.433 269.034C175.716 268.842 174.819 268.65 173.755 268.531C171.651 268.303 170.181 266.244 170.683 264.233L170.994 262.94C171.137 262.341 171.627 261.91 172.225 261.814C174.245 261.491 175.764 261.754 176.804 262.066C182.028 263.634 183.415 269.034 188.436 270.099C189.202 270.267 189.919 270.291 190.576 270.255C191.724 270.171 192.609 271.2 192.382 272.314Z" fill="#414176"/>
<path d="M182.53 266.795C182.363 266.962 182.1 266.986 181.885 266.855C180.821 266.196 179.542 265.502 178.047 264.879C176.517 264.245 175.082 263.826 173.839 263.55C173.361 263.443 173.241 262.832 173.648 262.592C174.52 262.078 175.405 261.563 176.278 261.048C176.457 260.94 176.672 260.952 176.852 261.072C177.82 261.754 178.872 262.569 179.972 263.538C180.952 264.412 181.801 265.262 182.542 266.076C182.722 266.28 182.734 266.603 182.53 266.795Z" fill="#D4D4E3"/>
<path d="M175.309 263.933C174.735 263.886 174.317 263.778 174.006 263.682C173.289 263.478 172.691 263.323 172.177 262.892C172.177 262.892 171.328 262.521 171.328 261.683C171.28 250.249 169.774 244.203 168.507 238.026C166.893 230.076 166.271 226.053 166.164 221.719C165.829 208.227 170.814 202.672 171.902 201.81C173.803 200.313 175.572 200.409 175.572 200.409C175.68 200.421 175.943 200.445 176.218 200.505C179.314 201.151 181.06 204.467 179.936 207.424C179.374 208.909 178.752 210.717 178.155 212.824C176.182 219.828 175.859 225.407 175.513 232.267C175.333 235.847 175.106 240.516 175.393 246.334C175.393 246.334 175.644 251.674 176.409 257.013C176.971 260.964 177.258 262.94 177.7 263.718C177.736 263.778 177.987 264.209 177.856 264.34C177.736 264.46 177.39 264.149 176.732 264.005C176.194 263.862 176.063 263.993 175.309 263.933Z" fill="#D4D4E3"/>
<path d="M112.161 238.875C110.81 242.826 107.809 242.12 103.935 246.909C103.122 247.914 95.8297 256.846 98.412 266.866C100.349 274.361 106.709 278.24 107.259 278.563C118.186 285.004 133.62 278.24 141.81 270.638C149.258 264.568 152.067 258.689 153.227 254.308C155.283 246.502 153.215 239.199 156.192 226.376C156.814 223.707 157.579 221.109 159.791 219.061C163.198 215.913 166.246 217.541 169.845 214.536C170.55 213.937 171.041 213.363 171.411 212.788C173.85 208.945 173.599 207.197 175.201 205.006C177.963 201.247 183.139 202.671 183.857 200.181C184.478 198.038 181.119 195.321 180.581 194.901C171.017 187.191 152.964 191.537 143.448 190.915C141.152 190.771 138.929 190.436 138.929 190.436C136.669 190.029 135.462 189.514 133.824 189.406C133.824 189.406 132.425 189.334 130.691 189.622C116.393 191.968 110.63 201.989 110.63 201.989C107.044 208.227 106.745 216.404 108.706 222.581C110.331 227.729 113.942 233.656 112.161 238.875Z" fill="#BCDDC9"/>
<path d="M147.166 179.673C146.221 181.481 144.99 182.905 143.376 183.229C139.993 183.887 137.924 179.074 129.209 169.497C123.387 163.103 122.526 160.386 120.123 156.567C118.676 154.268 119.286 151.227 121.522 149.682L121.617 149.623C122.311 149.144 123.542 148.437 125.013 148.545C129.843 148.892 131.708 157.632 137.877 167.689C139.754 170.706 142.695 174.98 147.166 179.673Z" fill="#D4D4E3"/>
<path d="M166.665 149.443C166.462 150.233 165.924 150.7 165.494 151.047C164.848 151.586 164.478 151.61 163.689 152.005C161.596 153.083 161.25 154.483 159.899 154.411C159.636 154.4 159.289 154.34 158.883 154.148L157.807 152.137C157.46 152.245 157.352 152.221 157.304 152.161C157.018 151.778 159.313 148.94 162.553 147.671C163.497 147.3 165.446 146.534 166.319 147.408C166.821 147.946 166.797 148.88 166.665 149.443Z" fill="#D4D4E3"/>
<path d="M142.074 183.312C140.591 182.486 140.472 180.307 140.46 180.092C140.352 177.626 142.181 175.962 144.357 173.447C145.325 172.334 148.231 168.922 150.371 165.079C151.207 163.582 154.089 158.135 155.727 154.1C155.942 153.561 156.504 152.161 157.902 151.287C158.799 150.736 159.708 150.592 160.317 150.556L160.353 150.568C161.178 151.023 161.489 152.053 161.059 152.891C160.15 154.699 159.038 157.033 157.89 159.811C155.882 164.696 155.189 167.497 154.256 170.035C153.037 173.364 150.849 177.733 146.617 182.534C146.019 183.217 143.664 184.222 142.074 183.312Z" fill="#D4D4E3"/>
<path d="M111.373 187.551C109.735 180.415 108.719 174.836 108.109 168.802C107.093 158.721 108.121 156.59 108.838 155.453C111.48 151.227 116.705 149.479 118.307 148.952C120.554 148.21 122.132 148.27 122.706 148.318C123.83 148.401 125.289 148.521 126.532 149.407C128.146 150.568 128.194 152.209 129.676 157.644C130.752 161.595 131.206 162.014 131.35 162.648C131.35 162.648 131.386 162.816 131.398 162.984C131.481 163.965 126.843 172.813 126.102 175.602C125.42 178.116 126.173 182.127 132.832 188.568C132.019 189.287 131.266 189.909 130.382 190.52C127.907 192.232 126.867 192.172 124.631 193.501C122.156 194.973 122.3 195.692 119.395 197.751C117.494 199.092 115.784 199.954 114.636 200.469C113.68 196.997 112.544 192.627 111.373 187.551Z" fill="#545490"/>
<path d="M136.563 178.465C136.407 178.224 136.359 178.152 136.359 178.152L136.563 178.465Z" fill="#EA942D"/>
<path d="M103.936 194.602C101.832 194.878 99.8835 194.686 98.6521 193.501C96.0578 191.011 98.9151 186.353 101.844 173.184C103.793 164.384 105.586 162.026 107.391 157.68C108.479 155.058 111.432 153.765 114.086 154.747L114.194 154.783C115.019 155.082 116.358 155.716 117.147 157.033C119.741 161.367 113.429 168.191 108.587 179.481C107.128 182.905 105.251 187.994 103.936 194.602Z" fill="#D4D4E3"/>
<path d="M142.157 197.2C141.739 197.954 140.627 198.002 140.436 198.002C139.802 198.026 139.443 197.835 137.554 196.769C136.478 196.159 135.498 195.416 134.398 194.854C134.028 194.662 133.454 194.387 133.107 193.764C132.856 193.309 132.844 192.878 132.832 192.711C132.808 191.837 133.238 190.747 133.956 190.364C134.458 190.113 135.056 190.101 139.013 192.77C141.057 194.147 141.715 194.65 142.097 195.632C142.217 195.967 142.468 196.637 142.157 197.2Z" fill="#D4D4E3"/>
<path d="M97.8751 192.304C97.887 190.532 99.7999 189.322 99.9911 189.203C102.179 187.85 104.618 188.688 108.013 189.394C109.52 189.706 114.086 190.639 118.665 190.639C120.447 190.639 126.855 190.52 131.362 189.969C131.972 189.897 133.526 189.694 135.02 190.52C135.977 191.046 136.562 191.813 136.909 192.351V192.387C136.909 193.369 136.132 194.171 135.152 194.207C133.048 194.291 130.358 194.459 127.261 194.818C121.81 195.452 118.916 196.242 116.119 196.673C112.472 197.248 107.391 197.464 100.888 196.027C99.9553 195.859 97.8631 194.219 97.8751 192.304Z" fill="#D4D4E3"/>
<path d="M124.762 147.096C124.726 148.665 124.858 150.101 125.037 151.347C124.344 151.873 123.148 152.58 121.654 152.628C118.593 152.711 117.075 150.065 116.692 149.335C117.637 148.413 118.785 147.06 119.729 145.217C120.542 143.648 120.996 142.116 121.259 140.739C121.606 138.86 121.57 137.267 121.486 136.273C123.268 136.704 125.049 137.147 126.819 137.578C125.982 139.542 125.085 142.319 124.822 145.708C124.786 146.163 124.774 146.629 124.762 147.096Z" fill="#D4D4E3"/>
<path d="M128.803 130.862C129.723 131.76 130.058 132.933 130.728 135.268C131.289 137.243 131.576 138.237 131.409 139.518C131.23 141.003 130.393 143.66 128.48 144.355C125.838 145.325 122.132 142.176 120.841 138.836C119.681 135.819 119.848 131.018 122.777 129.605C124.714 128.671 127.356 129.461 128.803 130.862Z" fill="#D4D4E3"/>
<path d="M126.496 127.474C127.177 129.378 126.902 131.58 125.79 133.257C124.679 134.933 122.742 136.034 120.733 136.142C120.195 136.166 119.621 136.118 119.191 135.795C118.545 135.304 118.462 134.37 118.557 133.568C118.808 131.545 119.968 129.641 121.654 128.492C123.017 127.558 125.515 126.72 127.105 127.438C126.914 127.486 126.711 127.45 126.496 127.474Z" fill="#545490"/>
<path d="M104.57 206.036L133.861 208.382L161.203 197.272L134.901 195.572L104.57 206.036Z" fill="#8383D0"/>
<path d="M134.901 207.963L160.712 197.476C161.011 197.356 161.202 197.068 161.202 196.769L160.641 170.251C160.629 169.76 160.115 169.437 159.624 169.604L133.418 178.308C133.084 178.416 132.868 178.715 132.88 179.038L133.849 207.341C133.849 207.855 134.399 208.167 134.901 207.963Z" fill="#545490"/>
<path d="M151.421 188.119C151.426 186.195 150.129 184.632 148.524 184.628C146.92 184.624 145.616 186.181 145.611 188.105C145.606 190.029 146.903 191.592 148.508 191.596C150.112 191.6 151.417 190.043 151.421 188.119Z" fill="white"/>
<path d="M101.725 235.535C101.091 236.158 100.027 237.044 98.4968 237.69C96.3209 238.612 94.3722 238.552 93.3799 238.445C91.8137 236.792 90.2595 235.14 88.6934 233.5C88.6814 233.476 91.3475 230.926 94.9102 230.627C95.6633 230.567 96.7752 230.471 98.0185 230.986C100.685 232.087 101.569 234.985 101.725 235.535Z" fill="#D4D4E3"/>
<path d="M93.4991 238.073C89.769 242.719 85.5727 250.62 77.4072 259.492C70.8199 266.651 54.7878 275.989 50.6632 275.079C43.514 273.499 39.497 260.485 43.2151 257.085C44.829 255.613 49.7068 259.348 51.3925 259.312C56.2344 259.204 66.3127 254.535 88.1431 233.428C88.6691 232.925 89.5179 232.997 89.9603 233.56C91.1439 235.068 92.3274 236.565 93.4991 238.073Z" fill="#8BC19E"/>
<path d="M44.8295 270.003L58.8531 261.132L52.5048 229.645C51.0941 222.617 44.2556 218.08 37.2379 219.492L31.9775 220.558C32.0493 227.777 32.8861 237.403 35.9587 248.286C38.4693 257.145 41.7928 264.436 44.8295 270.003Z" fill="#8BC19E"/>
<path d="M125.779 341.023L97.0264 353.102V294.439L133.777 278.994V328.978C133.777 334.234 130.621 338.987 125.779 341.023Z" fill="#545490"/>
<path d="M95.89 352.887L37.9786 350.971C31.4271 350.756 26.1309 345.56 26.1309 339.358V295.995L102.633 298.521V346.733C102.633 350.253 99.6081 353.007 95.89 352.887Z" fill="#F5F5FA"/>
<path d="M127.082 288.824C127.285 307.955 107.559 303.621 78.1844 303.621C48.8103 303.621 24.1465 308.015 24.1465 288.895C24.1465 269.764 47.7821 261.288 77.1682 261.288C106.554 261.288 126.687 252.033 127.082 288.824Z" fill="#7070A4"/>
<path d="M77.8375 307.417L72.7207 309.272C51.4402 317.006 26.7884 302.867 17.6546 277.689L3.70275 239.187C-0.864174 226.592 4.07336 213.255 14.7136 209.388L19.8304 207.532C30.4707 203.665 38.0623 212.98 42.6172 225.574L77.8375 307.417Z" fill="#7070A4"/>
<path d="M73.2828 302.807C78.1964 303.226 82.2373 303.442 87.665 303.083C100.254 302.256 101.689 301.023 113.046 299.922C128.241 298.449 133.131 299.946 136.479 295.708C139.037 292.475 140.519 287.183 139.838 283.939C139.635 282.969 139.276 282.347 139.085 282.047C137.447 279.533 134.075 279.246 133.191 279.198C127.751 278.659 122.204 278.18 116.561 277.797C96.0457 276.384 76.5825 276.229 58.3387 276.959C57.2627 278.037 55.0988 280.491 54.3217 284.226C52.8632 291.17 57.4181 296.498 57.992 297.156C61.208 300.796 65.7988 302.161 73.2828 302.807Z" fill="#414176"/>
<path d="M189.142 338.221L194.211 333.288C185.029 326.788 174.975 318.898 164.645 309.38C155.261 300.736 147.239 292.224 140.436 284.286C138.81 282.383 136.646 281.006 134.207 280.443C132.163 279.976 130.214 280.12 128.684 281.078C126.687 282.323 126.4 285.28 124.547 288.129C123.866 289.171 123.196 290.871 123.447 293.601C129.222 299.647 136.12 306.088 144.286 312.421C160.485 324.98 176.326 333.013 189.142 338.221Z" fill="#414176"/>
<path d="M192.597 342.088L199.759 332.295L191.45 332.091L187.385 337.658L192.597 342.088Z" fill="#D4D4E3"/>
<path d="M196.387 345.44C196.972 344.913 197.821 344.087 198.658 342.926C200.176 340.831 199.806 340.244 200.966 338.436C202.795 335.575 204.971 335.108 206.764 332.259C207.35 331.325 207.804 330.331 207.804 330.331C208.007 329.948 208.21 329.481 208.366 328.907C208.461 328.547 208.521 328.188 208.569 327.865C208.677 326.931 207.732 326.165 206.848 326.452C206.513 326.56 206.166 326.68 205.807 326.835C203.655 327.733 202.221 329.038 201.372 329.972C199.913 330.176 198.013 330.714 196.841 332.259C196.064 333.288 196.016 334.234 195.681 335.336C195.203 336.928 194.055 339.035 191.102 341.118C190.947 343.058 191.975 344.842 193.505 345.488C194.844 346.051 196.076 345.572 196.387 345.44Z" fill="#414176"/>
<path d="M72.1349 298.666C76.9648 297.684 80.8981 296.726 86.003 294.847C97.8507 290.477 98.8669 288.884 109.447 284.61C123.602 278.888 128.707 278.935 130.728 273.919C132.27 270.1 132.186 264.605 130.62 261.684C130.154 260.81 129.64 260.319 129.365 260.079C127.081 258.128 123.77 258.81 122.909 259.014C117.541 260.031 112.089 261.157 106.554 262.39C86.4812 266.856 67.7712 272.231 50.4838 278.097C49.7545 279.438 48.3797 282.407 48.6905 286.215C49.2644 293.29 55.1344 297.109 55.8637 297.564C59.9883 300.162 64.7824 300.162 72.1349 298.666Z" fill="#414176"/>
<path d="M138.499 340.915L145.529 340.244C142.432 329.421 139.539 316.958 137.435 303.059C135.522 290.44 134.59 278.767 134.255 268.315C134.171 265.813 133.346 263.383 131.804 261.419C130.501 259.767 128.887 258.666 127.106 258.45C124.774 258.163 122.694 260.294 119.478 261.347C118.295 261.742 116.717 262.64 115.198 264.927C115.916 273.26 117.267 282.61 119.681 292.667C124.44 312.612 131.768 328.811 138.499 340.915Z" fill="#414176"/>
<path d="M138.775 346.087L150.491 342.95L144.131 337.575L137.483 339.358L138.775 346.087Z" fill="#D4D4E3"/>
<path d="M139.634 351.079C140.424 351.043 141.607 350.924 142.982 350.552C145.469 349.87 145.552 349.188 147.585 348.493C150.801 347.404 152.785 348.409 155.977 347.308C157.018 346.949 157.998 346.458 157.998 346.458C158.392 346.29 158.859 346.051 159.325 345.704C159.624 345.476 159.899 345.249 160.138 345.009C160.795 344.351 160.544 343.154 159.684 342.818C159.361 342.687 159.002 342.567 158.643 342.471C156.408 341.825 154.471 341.944 153.228 342.136C151.96 341.382 150.143 340.603 148.266 341.07C147.011 341.382 146.389 342.1 145.433 342.747C144.058 343.68 141.846 344.614 138.248 344.387C136.909 345.799 136.598 347.835 137.387 349.307C138.044 350.588 139.312 350.995 139.634 351.079Z" fill="#414176"/>
<path d="M44.6853 200.361C44.6135 200.505 44.5298 200.66 44.4581 200.816C44.3146 201.103 44.1712 201.39 44.0277 201.69C42.6648 204.503 41.278 207.915 40.1781 211.89C40.1542 211.974 40.1303 212.07 40.1064 212.154C40.0825 212.249 40.0586 212.333 40.0347 212.429C38.2892 218.99 37.9305 224.76 38.0023 229.07C33.0408 226.041 28.0913 223.024 23.1299 219.995C25.1264 217.242 27.5294 213.315 29.3945 208.239C29.9803 206.634 30.4585 205.102 30.8291 203.641C31.2953 201.821 31.6301 200.133 31.8572 198.601C31.9409 198.074 32.0007 197.571 32.0605 197.08C33.8299 197.535 35.6112 198.002 37.3806 198.469C39.5086 199.02 41.6486 199.571 43.7767 200.133C44.0755 200.205 44.3864 200.289 44.6853 200.361Z" fill="#D4D4E3"/>
<path d="M52.4567 191.956C53.7239 191.226 54.6086 189.825 54.226 188.508C53.8554 187.203 49.9102 185.084 49.3841 184.162C46.5 182 38.8754 183.875 37.4528 184.462C34.0216 185.886 31.7142 189.275 31.8816 192.663C31.8935 192.89 31.9414 193.154 32.1566 193.261C32.2522 193.309 32.3718 193.321 32.4913 193.333C36.317 193.621 40.1547 193.644 43.9923 193.417C46.5746 193.261 50.2091 193.237 52.4567 191.956Z" fill="#545490"/>
<path d="M52.7195 284.873C57.7526 283.388 72.1349 276.277 70.7241 273.583L42.414 219.349C41.625 217.828 40.0947 216.847 38.3851 216.775L29.6099 216.344C25.1984 216.128 21.5162 219.672 21.552 224.102C21.5998 230.746 22.4606 238.983 25.306 247.998C30.9728 266.005 41.601 277.773 48.1047 283.795C49.3481 284.945 51.1055 285.352 52.7195 284.873Z" fill="#BCDDC9"/>
<path d="M50.818 276.229C53.7112 281.042 65.4752 280.527 69.0976 277.857C72.8516 275.08 68.9183 268.818 64.7818 264.688C61.5897 254.475 57.4651 245.52 54.273 235.296C52.1331 228.46 44.8642 224.653 38.0378 226.784L32.9209 228.388C33.7458 235.571 35.563 245.053 39.7593 255.553C43.1666 264.101 47.2194 270.997 50.818 276.229Z" fill="#8BC19E"/>
<path d="M41.111 202.372C42.1272 204.36 43.1434 206.359 44.1596 208.346C45.929 208.346 47.3636 206.898 47.3636 205.138V189.322C47.3636 187.551 45.917 186.114 44.1596 186.114H37.5124C34.3921 186.114 31.8336 188.676 31.8336 191.801L31.3076 198.9C31.6304 201.247 33.2802 203.186 35.492 203.809C38.6004 204.695 41.0034 202.48 41.111 202.372Z" fill="#545490"/>
<path d="M36.4469 198.768C36.1156 204.877 41.4806 209.712 45.2649 209.917C49.0492 210.122 49.8201 205.62 50.1514 199.511C50.4827 193.402 47.6824 188.299 43.8982 188.093C40.102 187.887 36.7775 192.671 36.4469 198.768Z" fill="#D4D4E3"/>
<path d="M34.3203 198.206C34.3203 199.463 35.2887 200.493 36.4962 200.493C37.6917 200.493 38.672 199.463 38.672 198.206C38.672 196.949 37.7037 195.919 36.4962 195.919C35.2887 195.919 34.3203 196.937 34.3203 198.206Z" fill="#D4D4E3"/>
<path d="M42.6293 209.34C41.9598 209.472 41.8044 209.663 41.7685 209.807C41.6848 210.178 42.3902 210.465 43.0238 211.483C43.2868 211.89 43.3227 212.094 43.4422 212.321C44.1596 213.662 46.5148 213.423 48.045 213.997C49.1688 214.428 50.5915 215.59 51.6197 218.954C53.6401 218.415 55.6486 217.876 57.669 217.349C57.1071 216.056 56.0312 214.057 53.9868 212.345C49.384 208.478 43.7172 209.184 42.6293 209.34Z" fill="#D4D4E3"/>
<path d="M54.943 212.142C57.7764 217.385 63.4432 224.317 68.4405 235.284C72.4814 244.143 74.8844 262.557 72.4456 266.017C68.2253 272.003 54.6919 270.674 53.0062 265.933C52.277 263.874 57.5971 260.809 58.2188 259.24C60.0001 254.727 59.5817 243.617 48.5947 215.29C48.3317 214.608 48.7262 213.854 49.4197 213.662C51.2608 213.147 53.1019 212.644 54.943 212.142Z" fill="#BCDDC9"/>
<path d="M54.979 268.052L65.954 255.601L51.0337 227.167C47.7102 220.821 39.8675 218.379 33.5431 221.719L28.7969 224.222C30.8891 231.141 34.38 240.145 40.3935 249.71C45.2713 257.504 50.4957 263.562 54.979 268.052Z" fill="#BCDDC9"/>
<path d="M103.673 312.313H33.5196C32.7305 312.313 32.085 311.667 32.085 310.876V274.84C32.085 274.05 32.7305 273.403 33.5196 273.403H77.1325C92.519 273.403 105.108 286.01 105.108 301.418V310.876C105.108 311.667 104.462 312.313 103.673 312.313Z" fill="#7070A4"/>
<path d="M97.827 311.032H33.7227C32.9337 311.032 32.2881 310.386 32.2881 309.595V282.347C32.2881 281.556 32.9337 280.91 33.7227 280.91H72.9719C87.4259 280.91 99.2497 292.751 99.2497 307.225V309.595C99.2616 310.386 98.6161 311.032 97.827 311.032Z" fill="#F5F5FA"/>
<path d="M119.693 258.498C119.107 258.486 118.641 258.007 118.641 257.42L119.203 217.637C119.214 217.05 119.693 216.583 120.279 216.583C120.864 216.595 121.331 217.074 121.331 217.661L120.769 257.444C120.769 258.043 120.279 258.51 119.693 258.498Z" fill="#F5F5FA"/>
<path d="M74.5489 273.499L73.8914 271.572C73.8435 271.416 73.9272 271.236 74.0826 271.189L119.656 255.768C119.812 255.72 119.991 255.804 120.039 255.96L120.696 257.887C120.744 258.043 120.66 258.223 120.505 258.271L74.9315 273.691C74.776 273.739 74.5967 273.655 74.5489 273.499Z" fill="#F5F5FA"/>
<path d="M366.893 352.624C405.717 352.624 437.19 346.358 437.19 338.628C437.19 330.899 405.717 324.633 366.893 324.633C328.069 324.633 296.596 330.899 296.596 338.628C296.596 346.358 328.069 352.624 366.893 352.624Z" fill="#DBDBE8"/>
<path d="M382.913 333.6C382.913 335.97 381.335 338.042 379.063 338.688C375.728 339.622 371.436 340.424 366.414 340.412C361.501 340.4 357.293 339.61 354.005 338.688C351.733 338.053 350.155 335.97 350.155 333.6V281.521C350.155 278.611 352.51 276.241 355.428 276.241H377.641C380.546 276.241 382.913 278.599 382.913 281.521V333.6Z" fill="#F5F5FA"/>
<path d="M452.732 279.904C452.732 284.969 449.241 289.374 444.315 290.512C423.465 295.313 396.948 299.419 366.176 299.479C334.769 299.539 307.75 295.384 286.613 290.512C281.676 289.374 278.185 284.981 278.185 279.904V256.235C278.185 250.225 283.05 245.353 289.052 245.353H441.865C447.866 245.353 452.732 250.225 452.732 256.235V279.904Z" fill="#545490"/>
<path d="M365.399 263.67C413.764 263.67 452.971 257.988 452.971 250.979C452.971 243.971 413.764 238.289 365.399 238.289C317.034 238.289 277.826 243.971 277.826 250.979C277.826 257.988 317.034 263.67 365.399 263.67Z" fill="#F5F5FA"/>
<path d="M409.159 233.592H421.915L420.863 230H410.211L409.159 233.592Z" fill="white"/>
<path d="M409.1 235.759H421.856C422.466 235.759 422.956 235.268 422.956 234.657V234.023C422.956 233.412 422.466 232.909 421.856 232.909H409.1C408.49 232.909 408 233.4 408 234.011V234.645C408 235.268 408.49 235.759 409.1 235.759Z" fill="white"/>
<path d="M410.953 253.25H419.872L421.103 235.759H409.722L410.953 253.25Z" fill="#BCDDC9"/>
<path d="M331.339 240.262H344.095L343.043 236.67H332.391L331.339 240.262Z" fill="white"/>
<path d="M331.28 242.429H344.036C344.646 242.429 345.136 241.938 345.136 241.327V240.693C345.136 240.082 344.646 239.579 344.036 239.579H331.28C330.67 239.579 330.18 240.07 330.18 240.681V241.315C330.18 241.938 330.67 242.429 331.28 242.429Z" fill="white"/>
<path d="M333.133 259.92H342.051L343.283 242.428H331.901L333.133 259.92Z" fill="#17C671"/>
<path d="M312.67 230.927H325.426L324.374 227.335H313.722L312.67 230.927Z" fill="white"/>
<path d="M312.611 233.094H325.367C325.977 233.094 326.467 232.603 326.467 231.993V231.358C326.467 230.747 325.977 230.245 325.367 230.245H312.611C312.001 230.245 311.511 230.736 311.511 231.346V231.981C311.511 232.603 312.001 233.094 312.611 233.094Z" fill="white"/>
<path d="M314.464 250.585H323.382L324.614 233.094H313.232L314.464 250.585Z" fill="#DBDBE8"/>
<path d="M382.16 227.592H394.916L393.864 224H383.212L382.16 227.592Z" fill="white"/>
<path d="M382.1 229.759H394.856C395.466 229.759 395.956 229.268 395.956 228.657V228.023C395.956 227.412 395.466 226.909 394.856 226.909H382.1C381.49 226.909 381 227.4 381 228.011V228.645C381 229.268 381.49 229.759 382.1 229.759Z" fill="white"/>
<path d="M383.953 247.25H392.872L394.103 229.759H382.722L383.953 247.25Z" fill="#DBDBE8"/>
<path d="M509.4 249.303C510.739 247.807 512.09 246.322 513.429 244.826L512.09 239.211C511.074 239.414 508.778 240.013 506.758 242C506.256 242.503 504.964 243.88 504.247 246.071C504.056 246.657 502.812 250.441 504.235 251.422C505.263 252.129 507.463 251.303 509.4 249.303Z" fill="#D4D4E3"/>
<path d="M172.339 75.8035C148.191 122.609 124.945 119.281 112.781 112.632C106.442 109.177 103.104 101.966 104.613 95.0633C107.5 81.7781 120.272 62.5736 172.339 75.8035Z" fill="white"/>
<path d="M117.836 114.997C115.901 114.337 114.19 113.545 112.712 112.737C106.342 109.261 102.962 101.979 104.476 95.0361C105.677 89.5357 108.86 81.9401 117.233 76.8673C128.944 69.7701 147.506 69.3719 172.355 75.6822L172.507 75.7203L172.441 75.8499C160.913 98.2069 148.368 111.511 135.166 115.395C128.478 117.366 122.523 116.59 117.836 114.997ZM172.157 75.8747C147.435 69.607 129.005 70.0077 117.365 77.066C109.073 82.085 105.911 89.6508 104.725 95.0961C103.231 101.944 106.575 109.115 112.843 112.543C117.826 115.273 125.743 117.948 135.099 115.198C148.21 111.316 160.679 98.0918 172.157 75.8747Z" fill="#545490"/>
<path d="M172.365 75.8358L107.734 104.232L172.365 75.8358Z" fill="#3F3F75"/>
<path d="M172.306 75.8987L107.699 103.959L107.799 104.177L172.405 76.1168L172.306 75.8987Z" fill="#3F3F75"/>
<path d="M127.361 72.9277L115.849 100.604L127.361 72.9277Z" fill="#3F3F75"/>
<path d="M127.695 72.9839L127.461 72.8937L115.545 100.578L115.779 100.668L127.695 72.9839Z" fill="#3F3F75"/>
<path d="M117.947 99.6787L145.373 109.832L117.947 99.6787Z" fill="#3F3F75"/>
<path d="M145.401 109.763L117.984 99.4932L117.909 99.7231L145.325 109.992L145.401 109.763Z" fill="#3F3F75"/>
<path d="M142.046 71.3884L133.824 92.8027L142.046 71.3884Z" fill="#3F3F75"/>
<path d="M142.34 71.4261L142.103 71.3418L133.545 92.7613L133.783 92.8456L142.34 71.4261Z" fill="#3F3F75"/>
<path d="M137.53 91.146L155.16 101.123L137.53 91.146Z" fill="#3F3F75"/>
<path d="M155.205 101.032L137.574 91.0098L137.464 91.2193L155.095 101.242L155.205 101.032Z" fill="#3F3F75"/>
<path d="M150.532 85.5064L157.769 72.862L150.532 85.5064Z" fill="#3F3F75"/>
<path d="M157.909 72.9007L157.692 72.7851L150.38 85.438L150.596 85.5536L157.909 72.9007Z" fill="#3F3F75"/>
<path d="M152.053 84.8447L164.391 89.2485L152.053 84.8447Z" fill="#3F3F75"/>
<path d="M164.442 89.1528L152.104 84.6976L152.031 84.9285L164.368 89.3837L164.442 89.1528Z" fill="#3F3F75"/>
<path d="M0.163086 92.2603C52.7973 86.0029 63.1718 106.77 64.5139 120.355C65.2213 127.428 61.1041 134.139 54.5022 136.733C41.8061 141.739 18.5905 141.974 0.163086 92.2603Z" fill="white"/>
<path d="M63.6253 114.932C64.1695 116.873 64.4778 118.705 64.641 120.355C65.3484 127.465 61.195 134.248 54.5567 136.86C49.2969 138.928 41.1715 140.542 32.2117 136.533C19.6789 130.929 8.85096 116.038 0.054412 92.3149L5.16001e-07 92.1698L0.145098 92.1517C25.2833 89.159 43.4568 92.0065 54.1577 100.604C59.5807 104.957 62.3013 110.234 63.6253 114.932ZM0.32647 92.3693C9.08674 115.966 19.8421 130.748 32.3024 136.316C41.1715 140.288 49.2607 138.674 54.466 136.624C61.0136 134.049 65.0945 127.356 64.4052 120.355C63.8611 114.787 61.6121 106.861 54.0308 100.767C43.3842 92.2423 25.3196 89.4129 0.32647 92.3693Z" fill="#545490"/>
<path d="M0.163086 92.2599L60.2698 129.006L0.163086 92.2599Z" fill="#3F3F75"/>
<path d="M0.0981125 92.3711L60.2158 129.087L60.3387 128.886L0.221003 92.1699L0.0981125 92.3711Z" fill="#3F3F75"/>
<path d="M23.3965 130.675L52.9057 124.527L23.3965 130.675Z" fill="#3F3F75"/>
<path d="M23.3766 130.544L23.4248 130.775L52.9328 124.617L52.8846 124.386L23.3766 130.544Z" fill="#3F3F75"/>
<path d="M50.7661 123.203L43.4023 94.8547L50.7661 123.203Z" fill="#3F3F75"/>
<path d="M43.2852 94.9032L50.6416 123.237L50.8698 123.178L43.5134 94.8439L43.2852 94.9032Z" fill="#3F3F75"/>
<path d="M13.7119 119.576L36.1658 114.28L13.7119 119.576Z" fill="#3F3F75"/>
<path d="M13.6792 119.46L13.7334 119.689L36.1856 114.387L36.1315 114.158L13.6792 119.46Z" fill="#3F3F75"/>
<path d="M32.5569 112.068L30.6162 91.8808L32.5569 112.068Z" fill="#3F3F75"/>
<path d="M30.5008 91.9071L32.4346 112.091L32.6693 112.069L30.7355 91.8846L30.5008 91.9071Z" fill="#3F3F75"/>
<path d="M20.5124 104.704L5.94824 105.973L20.5124 104.704Z" fill="#3F3F75"/>
<path d="M5.93047 105.876L5.95117 106.111L20.5128 104.827L20.492 104.592L5.93047 105.876Z" fill="#3F3F75"/>
<path d="M19.0437 103.815L15.5977 91.1555L19.0437 103.815Z" fill="#3F3F75"/>
<path d="M15.4735 91.1804L18.9131 103.835L19.1406 103.773L15.701 91.1186L15.4735 91.1804Z" fill="#3F3F75"/>
<path d="M67.4483 129.613C68.238 124.811 64.991 120.278 60.1961 119.487C55.4011 118.696 50.8738 121.948 50.0841 126.749C49.2945 131.551 52.5414 136.085 57.3364 136.876C62.1313 137.666 66.6586 134.415 67.4483 129.613Z" fill="#DBDBE8"/>
<path d="M56.5421 125.688C56.2552 126.395 55.4542 126.742 54.7488 126.455C54.0435 126.167 53.6968 125.365 53.9837 124.659C54.2706 123.952 55.0716 123.605 55.777 123.892C56.4824 124.168 56.8171 124.97 56.5421 125.688Z" fill="#F5F5FA"/>
<path d="M58.3947 122.288C58.1077 122.995 57.3067 123.342 56.6014 123.054C55.896 122.767 55.5493 121.965 55.8363 121.259C56.1232 120.552 56.9242 120.205 57.6295 120.492C58.3349 120.78 58.6816 121.582 58.3947 122.288Z" fill="#F5F5FA"/>
<path d="M66.2074 129.07C66.6382 128.444 66.4805 127.586 65.8552 127.155C65.2299 126.723 64.3738 126.881 63.943 127.508C63.5123 128.134 63.67 128.991 64.2953 129.422C64.9206 129.854 65.7767 129.696 66.2074 129.07Z" fill="#F5F5FA"/>
<path d="M63.9779 124.036C63.5953 124.982 62.5313 125.437 61.5868 125.066C60.6423 124.683 60.188 123.617 60.5586 122.671C60.9412 121.726 62.0052 121.271 62.9497 121.642C63.8942 122.025 64.3485 123.09 63.9779 124.036Z" fill="#F5F5FA"/>
<path d="M60.4562 130.31C61.4639 130.174 62.171 129.246 62.0355 128.237C61.8999 127.227 60.9731 126.519 59.9653 126.655C58.9576 126.791 58.2505 127.719 58.386 128.728C58.5216 129.737 59.4484 130.445 60.4562 130.31Z" fill="#F5F5FA"/>
<path d="M107.397 113.441C113.177 107.653 113.177 98.2685 107.397 92.4804C101.617 86.6922 92.2455 86.6922 86.4655 92.4804C80.6856 98.2685 80.6856 107.653 86.4655 113.441C92.2455 119.229 101.617 119.229 107.397 113.441Z" fill="#545490"/>
<path d="M96.6276 17.0732C96.6276 17.0732 84.6754 28.4765 83.3558 39.9674C82.4917 47.4645 85.3002 53.5895 90.6486 53.8931C93.9884 54.0799 100.394 49.3096 100.96 40.6856C101.561 31.6062 95.6759 30.4734 96.6276 17.0732Z" fill="#DBDBE8"/>
<path d="M91.7992 53.8288C91.8167 53.8112 91.8167 53.7879 91.8109 53.7704C87.928 45.9638 89.4578 36.4114 91.4197 29.7668C93.5508 22.5675 96.6396 17.1432 96.6688 17.0906C96.6805 17.0673 96.6746 17.0381 96.6513 17.0264C96.6279 17.0147 96.5929 17.0264 96.5812 17.0497C96.552 17.1023 93.4574 22.5324 91.3204 29.7493C90.065 33.9825 89.3877 37.9996 89.2943 41.6781C89.1775 46.2791 89.995 50.3663 91.7116 53.8229C91.7233 53.8463 91.7525 53.8521 91.7758 53.8404C91.7933 53.8346 91.7933 53.8346 91.7992 53.8288Z" fill="white"/>
<path d="M91.8274 28.4356C91.8449 28.4181 91.8507 28.3889 91.8332 28.3714C91.8157 28.3539 90.4144 26.6256 90.2684 24.5761C90.2684 24.5528 90.245 24.5294 90.2158 24.5353C90.1866 24.5411 90.1633 24.5645 90.1691 24.5937C90.3151 26.6781 91.7398 28.4181 91.7515 28.4415C91.7748 28.4531 91.7982 28.4531 91.8274 28.4356Z" fill="white"/>
<path d="M97.078 25.4402C97.0955 25.4227 97.0955 25.3993 97.0897 25.3818C97.078 25.3584 97.0488 25.3526 97.0255 25.3643C93.9309 27.0342 91.2041 30.2748 91.1691 30.3098C91.1516 30.3273 91.1516 30.3624 91.1691 30.3799C91.1866 30.3974 91.2216 30.3857 91.2392 30.3682C91.2684 30.339 93.9834 27.1101 97.0547 25.4519C97.0663 25.4519 97.0722 25.446 97.078 25.4402Z" fill="white"/>
<path d="M89.9832 35.7577L89.989 35.7518C90.0007 35.7285 90.0007 35.6935 89.9773 35.6818C89.954 35.6701 87.6651 34.2688 86.0536 31.4544C86.0419 31.4311 86.0127 31.4252 85.9835 31.4428C85.9602 31.4544 85.9485 31.4895 85.9602 31.5128C87.5834 34.3505 89.8897 35.7577 89.9131 35.7694C89.9481 35.781 89.9656 35.7752 89.9832 35.7577Z" fill="white"/>
<path d="M99.004 31.279C99.0157 31.2673 99.0274 31.244 99.0216 31.2265C99.0157 31.1973 98.9865 31.1914 98.9573 31.1973C93.0192 33.3168 89.621 37.731 89.586 37.7777C89.5684 37.7952 89.5684 37.8302 89.5976 37.8477C89.621 37.8594 89.6502 37.8536 89.6677 37.8361C89.7027 37.7894 93.0834 33.4044 98.9865 31.2965C98.9924 31.2907 98.9982 31.2849 99.004 31.279Z" fill="white"/>
<path d="M89.3811 43.0618C89.387 43.056 89.3928 43.0501 89.3928 43.0384C89.4045 43.0151 89.387 42.9859 89.3636 42.9742C89.3228 42.9684 85.3874 41.9174 83.554 38.8928C83.5423 38.8695 83.5131 38.8636 83.4839 38.8812C83.4606 38.8928 83.4489 38.9279 83.4606 38.9512C85.3115 42.0166 89.2819 43.0676 89.3228 43.0735C89.3461 43.0851 89.3636 43.0793 89.3811 43.0618Z" fill="white"/>
<path d="M100.966 37.842C100.978 37.8303 100.984 37.8128 100.978 37.7953C100.972 37.7661 100.948 37.7544 100.919 37.7603C94.9812 39.4827 89.5219 45.6778 89.4693 45.742C89.446 45.7653 89.4518 45.7945 89.4693 45.812C89.4868 45.8296 89.5219 45.8296 89.5394 45.8004C89.5919 45.7361 95.0279 39.5645 100.937 37.8478C100.954 37.8537 100.96 37.8478 100.966 37.842Z" fill="white"/>
<path d="M90.0882 49.0468C90.094 49.0409 90.1057 49.0292 90.1057 49.0176C90.1115 48.9884 90.0882 48.965 90.0648 48.965C90.0298 48.965 86.2871 48.6439 83.6129 46.3434C83.5954 46.3258 83.5545 46.3317 83.5429 46.355C83.5195 46.3784 83.5253 46.4076 83.5429 46.4251C86.2404 48.749 90.0064 49.0701 90.0415 49.0701C90.059 49.0643 90.0765 49.0584 90.0882 49.0468Z" fill="white"/>
<path d="M99.9444 45.6603C99.9561 45.6486 99.9619 45.6311 99.9619 45.6194C99.9619 45.596 99.9386 45.5727 99.9094 45.5785C94.7478 46.3609 90.3161 49.9051 90.2753 49.946C90.2577 49.9635 90.2461 49.9985 90.2636 50.0161C90.2811 50.0336 90.3103 50.0394 90.3336 50.0161C90.3804 49.981 94.7829 46.4544 99.9152 45.6778C99.9269 45.6778 99.9386 45.6661 99.9444 45.6603Z" fill="white"/>
<path d="M20.6126 36.1001C20.6126 36.1001 45.277 43.479 55.5358 58.2896C62.2334 67.9503 62.9223 78.2598 55.8671 82.3531C51.4595 84.9055 39.2292 82.785 32.1069 71.378C24.6015 59.3722 31.777 53.7753 20.6126 36.1001Z" fill="#DBDBE8"/>
<path d="M54.6787 83.0564C54.6416 83.0446 54.6239 83.0126 54.6186 82.9846C53.9902 69.6175 44.686 57.6041 36.994 49.8683C28.6524 41.4906 20.3522 36.204 20.2728 36.1522C20.2392 36.1284 20.2251 36.0844 20.248 36.0522C20.2709 36.0201 20.3273 36.0119 20.3609 36.0357C20.4403 36.0875 28.7529 41.3781 37.1157 49.7757C42.0235 54.7002 45.9825 59.7288 48.8918 64.6978C52.5307 70.9129 54.5114 77.071 54.7933 82.9879C54.7951 83.0279 54.7598 83.0561 54.7192 83.0563C54.691 83.0604 54.691 83.0604 54.6787 83.0564Z" fill="white"/>
<path d="M36.0825 48.3406C36.0442 48.3288 36.0132 48.2929 36.0241 48.2569C36.035 48.2208 36.6525 44.8896 35.2551 41.9882C35.2368 41.9563 35.2514 41.9082 35.297 41.896C35.3426 41.8838 35.3936 41.8996 35.4083 41.9435C36.833 44.8927 36.1919 48.2561 36.1937 48.2961C36.17 48.3282 36.1372 48.3443 36.0825 48.3406Z" fill="white"/>
<path d="M26.69 47.9485C26.6539 47.9368 26.6369 47.9032 26.6319 47.8733C26.6304 47.8305 26.6651 47.7993 26.7048 47.798C32.052 47.7931 38.0544 50.3411 38.1267 50.3643C38.1628 50.3759 38.1884 50.4264 38.1778 50.4654C38.1672 50.5043 38.1119 50.5148 38.0758 50.5032C38.0155 50.4838 32.0372 47.9436 26.7297 47.9471C26.7141 47.9562 26.7021 47.9523 26.69 47.9485Z" fill="white"/>
<path d="M43.5326 57.099L43.5193 57.0953C43.4835 57.0724 43.4554 57.0254 43.4802 56.9929C43.505 56.9605 45.7278 53.4324 45.826 48.4966C45.8243 48.4568 45.8623 48.428 45.9191 48.4305C45.9626 48.4293 46.0078 48.4679 46.0095 48.5076C45.913 53.4832 43.6692 57.0317 43.6444 57.0642C43.6025 57.1051 43.5722 57.1099 43.5326 57.099Z" fill="white"/>
<path d="M28.0717 57.3218C28.0475 57.3141 28.0147 57.29 28.0097 57.2609C27.996 57.2154 28.0307 57.1853 28.074 57.1717C37.5646 55.7137 45.3497 59.3899 45.4309 59.4295C45.4672 59.4411 45.4929 59.4905 45.4668 59.537C45.4442 59.5709 45.4009 59.5846 45.3646 59.573C45.2835 59.5334 37.5432 55.8852 28.108 57.3334C28.0959 57.3296 28.0838 57.3257 28.0717 57.3218Z" fill="white"/>
<path d="M49.3495 66.6938C49.3364 66.69 49.3234 66.6862 49.3141 66.6704C49.2787 66.6469 49.2806 66.5949 49.3049 66.5626C49.359 66.5259 54.1805 62.3258 54.4069 56.9288C54.4051 56.8889 54.4425 56.8604 54.4984 56.8636C54.5413 56.8629 54.586 56.9023 54.5878 56.9422C54.3688 62.407 49.4968 66.6318 49.4427 66.6685C49.4184 66.7008 49.3886 66.7053 49.3495 66.6938Z" fill="white"/>
<path d="M29.9038 67.6831C29.8796 67.6754 29.859 67.6551 29.8539 67.626C29.8402 67.5805 29.8628 67.5465 29.9061 67.5329C39.104 65.5119 50.9503 70.1552 51.0677 70.2064C51.1161 70.2218 51.1298 70.2673 51.1192 70.3052C51.1087 70.343 51.0619 70.3692 51.0171 70.3412C50.8997 70.29 39.1017 65.6621 29.9471 67.6695C29.928 67.6908 29.9159 67.687 29.9038 67.6831Z" fill="white"/>
<path d="M52.4979 75.3481C52.4852 75.3442 52.4596 75.3363 52.4505 75.3204C52.4194 75.2845 52.434 75.2364 52.4668 75.2203C52.516 75.196 57.5237 72.1673 59.4823 67.1734C59.4932 67.1374 59.5552 67.1171 59.5899 67.1409C59.6409 67.1566 59.6556 67.2006 59.6447 67.2366C57.6715 72.2786 52.631 75.3235 52.5818 75.3477C52.5526 75.3519 52.5235 75.356 52.4979 75.3481Z" fill="white"/>
<path d="M36.6824 77.5848C36.658 77.5771 36.6371 77.5571 36.6284 77.541C36.611 77.5088 36.625 77.4599 36.6685 77.4471C44.1815 74.8445 52.7704 76.5715 52.8557 76.5987C52.8922 76.6104 52.934 76.6504 52.9235 76.687C52.913 76.7237 52.8782 76.7526 52.8294 76.737C52.7406 76.722 44.204 74.9983 36.7346 77.5882C36.7189 77.5965 36.6945 77.5887 36.6824 77.5848Z" fill="white"/>
<path d="M139.746 44.1551C139.746 44.1551 90.2528 42.992 63.1057 64.5464C45.3871 78.6025 38.3591 97.5336 49.0496 109.511C55.7312 116.985 79.4138 120.449 98.8894 103.374C119.404 85.4078 109.332 70.5351 139.746 44.1551Z" fill="#DBDBE8"/>
<path d="M51.6236 111.812C51.6979 111.812 51.7474 111.763 51.7721 111.713C60.087 86.9418 83.5716 69.9409 101.81 60.0175C121.582 49.2774 139.623 44.3281 139.796 44.2786C139.87 44.2539 139.92 44.1796 139.895 44.1054C139.87 44.0312 139.771 43.9817 139.697 44.0064C139.524 44.0559 121.459 49.0052 101.637 59.77C90.0057 66.0804 80.0575 73.158 72.0644 80.7552C62.0667 90.2579 55.1377 100.651 51.4504 111.614C51.4257 111.688 51.4752 111.763 51.5494 111.787C51.5989 111.812 51.5989 111.812 51.6236 111.812Z" fill="white"/>
<path d="M105.497 58.0625C105.571 58.0625 105.645 58.013 105.645 57.9388C105.645 57.8645 106.338 51.2324 110.372 46.5801C110.421 46.5306 110.421 46.4316 110.347 46.3821C110.273 46.3326 110.174 46.3326 110.124 46.4068C106.016 51.1334 105.348 57.8398 105.323 57.914C105.348 57.9883 105.398 58.0378 105.497 58.0625Z" fill="white"/>
<path d="M122.968 62.8386C123.042 62.8386 123.092 62.7891 123.117 62.7396C123.141 62.6654 123.092 62.5911 123.018 62.5664C112.921 59.5473 100.275 60.6362 100.127 60.6362C100.053 60.6362 99.9785 60.7104 99.9785 60.7846C99.9785 60.8589 100.077 60.9084 100.152 60.9084C100.275 60.9084 112.871 59.8195 122.894 62.8139C122.919 62.8386 122.943 62.8386 122.968 62.8386Z" fill="white"/>
<path d="M86.07 69.6687H86.0947C86.169 69.6439 86.2432 69.5697 86.2184 69.4954C86.1937 69.4212 84.313 61.6012 86.8619 52.2223C86.8866 52.148 86.8371 52.0738 86.7381 52.049C86.6639 52.0243 86.5649 52.0738 86.5402 52.148C83.9665 61.6012 85.872 69.4707 85.8967 69.5449C85.9462 69.6439 85.9957 69.6687 86.07 69.6687Z" fill="white"/>
<path d="M114.678 79.2951C114.728 79.2951 114.802 79.2704 114.827 79.2209C114.876 79.1467 114.827 79.0724 114.753 79.0229C97.6773 70.9308 81.1218 73.0837 80.9486 73.1085C80.8744 73.1085 80.8001 73.1827 80.8249 73.2817C80.8496 73.3559 80.9239 73.4054 80.9981 73.4054C81.1713 73.3807 97.6278 71.2525 114.604 79.2951C114.629 79.2951 114.654 79.2951 114.678 79.2951Z" fill="white"/>
<path d="M69.3178 83.8732C69.3426 83.8732 69.3673 83.8732 69.3921 83.8485C69.4663 83.8237 69.4911 83.7248 69.4663 83.6505C69.3921 83.5515 63.2796 72.9847 65.8038 62.6901C65.8285 62.6159 65.7791 62.5416 65.6801 62.5169C65.6058 62.4921 65.5068 62.5416 65.4821 62.6159C62.9084 73.0342 69.0951 83.6753 69.1693 83.7742C69.1941 83.8485 69.2436 83.8732 69.3178 83.8732Z" fill="white"/>
<path d="M104.928 97.3602C104.977 97.3602 105.027 97.3354 105.051 97.2859C105.101 97.2117 105.076 97.1374 105.002 97.0879C88.7681 88.1544 64.071 89.7134 63.8235 89.7382C63.7245 89.7382 63.675 89.8124 63.675 89.8867C63.675 89.9609 63.7492 90.0351 63.8482 90.0104C64.0957 89.9857 88.6939 88.4266 104.853 97.3107C104.878 97.3602 104.903 97.3602 104.928 97.3602Z" fill="white"/>
<path d="M58.1318 98.0531C58.1566 98.0531 58.2061 98.0531 58.2308 98.0283C58.305 97.9788 58.305 97.8798 58.2555 97.8304C58.1813 97.7561 50.9305 89.1443 50.1386 78.6022C50.1386 78.528 50.0397 78.4537 49.9654 78.4785C49.8664 78.4785 49.8169 78.5527 49.8169 78.627C50.6088 89.268 57.9091 97.9293 57.9833 98.0036C58.0328 98.0283 58.0823 98.0531 58.1318 98.0531Z" fill="white"/>
<path d="M86.1943 111.763C86.2438 111.763 86.2933 111.738 86.318 111.713C86.3675 111.664 86.3675 111.565 86.2933 111.515C73.6973 102.235 56.7953 100.354 56.6221 100.354C56.5478 100.354 56.4488 100.404 56.4488 100.478C56.4488 100.552 56.4983 100.627 56.5973 100.627C56.7706 100.651 73.5735 102.507 86.0953 111.738C86.1201 111.763 86.1696 111.763 86.1943 111.763Z" fill="white"/>
<path d="M117.954 76.4605C121.884 75.8217 124.553 72.1135 123.915 68.1778C123.277 64.2422 119.574 61.5695 115.644 62.2082C111.714 62.847 109.045 66.5552 109.683 70.4909C110.321 74.4265 114.024 77.0992 117.954 76.4605Z" fill="#545490"/>
<path d="M120.384 69.2513C121.004 69.2513 121.507 68.7474 121.507 68.1259C121.507 67.5043 121.004 67.0005 120.384 67.0005C119.763 67.0005 119.26 67.5043 119.26 68.1259C119.26 68.7474 119.763 69.2513 120.384 69.2513Z" fill="#F5F5FA"/>
<path d="M121.044 65.4127C121.281 64.8384 121.009 64.1801 120.436 63.9422C119.862 63.7044 119.205 63.9771 118.967 64.5513C118.73 65.1255 119.002 65.7839 119.575 66.0217C120.149 66.2596 120.806 65.9869 121.044 65.4127Z" fill="#F5F5FA"/>
<path d="M111.978 68.6167C112.599 68.6167 113.102 68.1129 113.102 67.4914C113.102 66.8698 112.599 66.366 111.978 66.366C111.358 66.366 110.854 66.8698 110.854 67.4914C110.854 68.1129 111.358 68.6167 111.978 68.6167Z" fill="#F5F5FA"/>
<path d="M117.01 65.1798C117.329 64.4101 116.964 63.5276 116.195 63.2088C115.426 62.89 114.545 63.2555 114.227 64.0252C113.908 64.7949 114.273 65.6774 115.042 65.9962C115.811 66.3151 116.692 65.9495 117.01 65.1798Z" fill="#F5F5FA"/>
<path d="M115.613 70.64C116.445 70.64 117.119 69.9647 117.119 69.1315C117.119 68.2984 116.445 67.623 115.613 67.623C114.781 67.623 114.106 68.2984 114.106 69.1315C114.106 69.9647 114.781 70.64 115.613 70.64Z" fill="#F5F5FA"/>
<path d="M127.431 88.4272C127.944 82.2264 123.34 76.7837 117.148 76.2705C110.956 75.7573 105.52 80.368 105.008 86.5688C104.496 92.7696 109.1 98.2124 115.292 98.7256C121.484 99.2388 126.919 94.6281 127.431 88.4272Z" fill="#545490"/>
<path d="M121.817 87.3772C122.794 87.3772 123.587 86.5839 123.587 85.6053C123.587 84.6267 122.794 83.8334 121.817 83.8334C120.84 83.8334 120.048 84.6267 120.048 85.6053C120.048 86.5839 120.84 87.3772 121.817 87.3772Z" fill="#F5F5FA"/>
<path d="M119.462 80.6967C119.462 81.6664 120.251 82.4686 121.231 82.4686C122.2 82.4686 123.001 81.6784 123.001 80.6967C123.001 79.7269 122.212 78.9248 121.231 78.9248C120.251 78.9248 119.462 79.715 119.462 80.6967Z" fill="#F5F5FA"/>
<path d="M109.361 86.2619C110.264 85.8874 110.693 84.8508 110.319 83.9467C109.945 83.0426 108.91 82.6133 108.007 82.9878C107.104 83.3623 106.675 84.3988 107.049 85.3029C107.423 86.207 108.458 86.6364 109.361 86.2619Z" fill="#F5F5FA"/>
<path d="M114.37 82.4686C115.671 82.4686 116.725 81.4127 116.725 80.1101C116.725 78.8075 115.671 77.7516 114.37 77.7516C113.069 77.7516 112.015 78.8075 112.015 80.1101C112.015 81.4127 113.069 82.4686 114.37 82.4686Z" fill="#F5F5FA"/>
<path d="M114.37 89.5322C115.671 89.5322 116.725 88.4763 116.725 87.1737C116.725 85.8711 115.671 84.8152 114.37 84.8152C113.069 84.8152 112.015 85.8711 112.015 87.1737C112.015 88.4763 113.069 89.5322 114.37 89.5322Z" fill="#F5F5FA"/>
<path d="M51.4813 99.998C58.3746 99.998 63.9627 94.402 63.9627 87.499C63.9627 80.596 58.3746 75 51.4813 75C44.5881 75 39 80.596 39 87.499C39 94.402 44.5881 99.998 51.4813 99.998Z" fill="#545490"/>
<path d="M57.6853 87.3673C58.7681 87.3673 59.6459 86.4883 59.6459 85.4039C59.6459 84.3195 58.7681 83.4404 57.6853 83.4404C56.6024 83.4404 55.7246 84.3195 55.7246 85.4039C55.7246 86.4883 56.6024 87.3673 57.6853 87.3673Z" fill="white"/>
<path d="M57.0407 81.92C58.1236 81.92 59.0014 81.0409 59.0014 79.9565C59.0014 78.8721 58.1236 77.9931 57.0407 77.9931C55.9579 77.9931 55.0801 78.8721 55.0801 79.9565C55.0801 81.0409 55.9579 81.92 57.0407 81.92Z" fill="white"/>
<path d="M43.1247 86.2778C44.2076 86.2778 45.0854 85.3988 45.0854 84.3144C45.0854 83.23 44.2076 82.351 43.1247 82.351C42.0419 82.351 41.1641 83.23 41.1641 84.3144C41.1641 85.3988 42.0419 86.2778 43.1247 86.2778Z" fill="white"/>
<path d="M49.4246 81.908C50.864 81.908 52.0309 80.7395 52.0309 79.2981C52.0309 77.8566 50.864 76.6881 49.4246 76.6881C47.9852 76.6881 46.8184 77.8566 46.8184 79.2981C46.8184 80.7395 47.9852 81.908 49.4246 81.908Z" fill="white"/>
<path d="M49.4246 89.7498C50.864 89.7498 52.0309 88.5813 52.0309 87.1399C52.0309 85.6984 50.864 84.5299 49.4246 84.5299C47.9852 84.5299 46.8184 85.6984 46.8184 87.1399C46.8184 88.5813 47.9852 89.7498 49.4246 89.7498Z" fill="white"/>
<path d="M62.946 72.9117C66.7822 72.9117 69.8921 69.7975 69.8921 65.9559C69.8921 62.1142 66.7822 59 62.946 59C59.1098 59 56 62.1142 56 65.9559C56 69.7975 59.1098 72.9117 62.946 72.9117Z" fill="white"/>
</svg> 