<svg width="437" height="113" viewBox="0 0 437 113" fill="none" xmlns="http://www.w3.org/2000/svg">
<path d="M0.442261 26.468C0.442261 23.348 0.994261 20.276 2.09826 17.252C3.25026 14.228 4.90626 11.492 7.06626 9.04398C9.22626 6.59598 11.8663 4.65198 14.9863 3.21198C18.1063 1.72398 21.6583 0.97998 25.6423 0.97998C30.2983 0.97998 34.3543 2.01198 37.8103 4.07598C41.2663 6.13998 43.8343 8.82798 45.5143 12.14L37.8823 17.396C37.0183 15.476 35.8903 13.964 34.4983 12.86C33.1063 11.756 31.5943 10.964 29.9623 10.484C28.3783 10.004 26.8423 9.76398 25.3543 9.76398C22.8583 9.76398 20.6743 10.268 18.8023 11.276C16.9783 12.284 15.4423 13.604 14.1943 15.236C12.9463 16.868 12.0103 18.692 11.3863 20.708C10.8103 22.724 10.5223 24.74 10.5223 26.756C10.5223 29.78 11.1463 32.612 12.3943 35.252C13.6423 37.844 15.3943 39.956 17.6503 41.588C19.9063 43.22 22.5223 44.036 25.4983 44.036C27.0343 44.036 28.6183 43.772 30.2503 43.244C31.9303 42.716 33.4663 41.876 34.8583 40.724C36.2503 39.572 37.3303 38.084 38.0983 36.26L46.2343 40.94C45.1783 43.484 43.5223 45.644 41.2663 47.42C39.0103 49.148 36.4663 50.492 33.6343 51.452C30.8023 52.364 27.9943 52.82 25.2103 52.82C21.5623 52.82 18.2263 52.076 15.2023 50.588C12.2263 49.052 9.63426 47.036 7.42626 44.54C5.21826 41.996 3.49026 39.164 2.24226 36.044C1.04226 32.876 0.442261 29.684 0.442261 26.468Z" fill="white"/>
<path d="M74.4256 23.012C71.4976 23.012 68.8816 23.588 66.5776 24.74C64.2736 25.844 62.6176 27.452 61.6096 29.564V52.388H51.9616V14.66H60.8176V22.724C62.1136 20.132 63.7936 18.092 65.8576 16.604C67.9696 15.116 70.1776 14.3 72.4816 14.156C73.4896 14.156 74.1376 14.18 74.4256 14.228V23.012Z" fill="white"/>
<path d="M80.5974 59.732C82.3734 60.212 83.8134 60.452 84.9174 60.452C86.2134 60.452 87.2454 59.9 88.0134 58.796C88.8294 57.74 89.7414 55.604 90.7494 52.388L75.8454 14.66H85.8534L96.0054 42.524L104.933 14.66H114.149L98.3094 59.876C97.4454 62.468 95.8854 64.604 93.6294 66.284C91.4214 68.012 88.6854 68.876 85.4214 68.876C83.8374 68.876 82.2294 68.612 80.5974 68.084V59.732Z" fill="white"/>
<path d="M141.999 53.108C139.023 53.108 136.431 52.436 134.223 51.092C132.015 49.748 130.287 47.972 129.039 45.764V67.724H119.391V14.66H127.815V21.14C129.207 18.932 131.007 17.204 133.215 15.956C135.471 14.66 138.015 14.012 140.847 14.012C144.255 14.012 147.279 14.9 149.919 16.676C152.559 18.404 154.647 20.756 156.183 23.732C157.719 26.66 158.487 29.9 158.487 33.452C158.487 37.148 157.767 40.484 156.327 43.46C154.935 46.388 152.991 48.74 150.495 50.516C148.047 52.244 145.215 53.108 141.999 53.108ZM138.759 44.9C140.727 44.9 142.431 44.372 143.871 43.316C145.359 42.212 146.511 40.796 147.327 39.068C148.191 37.292 148.623 35.42 148.623 33.452C148.623 31.34 148.167 29.444 147.255 27.764C146.343 26.036 145.095 24.692 143.511 23.732C141.975 22.724 140.199 22.22 138.183 22.22C136.359 22.22 134.535 22.82 132.711 24.02C130.887 25.22 129.663 26.732 129.039 28.556V37.412C129.903 39.524 131.223 41.3 132.999 42.74C134.775 44.18 136.695 44.9 138.759 44.9Z" fill="white"/>
<path d="M187.14 50.444C185.844 51.02 184.236 51.596 182.316 52.172C180.444 52.748 178.5 53.036 176.484 53.036C174.708 53.036 173.076 52.724 171.588 52.1C170.1 51.476 168.9 50.492 167.988 49.148C167.124 47.756 166.692 45.956 166.692 43.748V22.076H161.724V14.66H166.692V2.41998H176.34V14.66H184.26V22.076H176.34V40.508C176.34 41.804 176.676 42.74 177.348 43.316C178.068 43.892 178.932 44.18 179.94 44.18C180.948 44.18 181.932 44.012 182.892 43.676C183.852 43.34 184.62 43.052 185.196 42.812L187.14 50.444Z" fill="white"/>
<path d="M209.097 53.108C204.969 53.108 201.417 52.22 198.441 50.444C195.513 48.62 193.257 46.22 191.673 43.244C190.089 40.268 189.297 37.052 189.297 33.596C189.297 30.092 190.089 26.852 191.673 23.876C193.305 20.9 195.585 18.524 198.513 16.748C201.489 14.924 205.017 14.012 209.097 14.012C213.177 14.012 216.681 14.924 219.609 16.748C222.585 18.524 224.865 20.9 226.449 23.876C228.033 26.852 228.825 30.092 228.825 33.596C228.825 37.052 228.033 40.268 226.449 43.244C224.865 46.22 222.585 48.62 219.609 50.444C216.681 52.22 213.177 53.108 209.097 53.108ZM199.233 33.596C199.233 35.804 199.665 37.772 200.529 39.5C201.393 41.18 202.569 42.5 204.057 43.46C205.545 44.42 207.225 44.9 209.097 44.9C210.921 44.9 212.577 44.42 214.065 43.46C215.553 42.452 216.729 41.108 217.593 39.428C218.505 37.7 218.961 35.732 218.961 33.524C218.961 31.364 218.505 29.444 217.593 27.764C216.729 26.036 215.553 24.692 214.065 23.732C212.577 22.724 210.921 22.22 209.097 22.22C207.225 22.22 205.545 22.724 204.057 23.732C202.569 24.692 201.393 26.036 200.529 27.764C199.665 29.444 199.233 31.388 199.233 33.596Z" fill="white"/>
<path d="M295.258 52.388V18.836L282.154 43.82H276.61L263.506 18.836V52.388H253.57V1.26798H264.226L279.346 30.356L294.61 1.26798H305.194V52.388H295.258Z" fill="white"/>
<path d="M331.722 53.108C327.594 53.108 324.042 52.22 321.066 50.444C318.138 48.62 315.882 46.22 314.298 43.244C312.714 40.268 311.922 37.052 311.922 33.596C311.922 30.092 312.714 26.852 314.298 23.876C315.93 20.9 318.21 18.524 321.138 16.748C324.114 14.924 327.642 14.012 331.722 14.012C335.802 14.012 339.306 14.924 342.234 16.748C345.21 18.524 347.49 20.9 349.074 23.876C350.658 26.852 351.45 30.092 351.45 33.596C351.45 37.052 350.658 40.268 349.074 43.244C347.49 46.22 345.21 48.62 342.234 50.444C339.306 52.22 335.802 53.108 331.722 53.108ZM321.858 33.596C321.858 35.804 322.29 37.772 323.154 39.5C324.018 41.18 325.194 42.5 326.682 43.46C328.17 44.42 329.85 44.9 331.722 44.9C333.546 44.9 335.202 44.42 336.69 43.46C338.178 42.452 339.354 41.108 340.218 39.428C341.13 37.7 341.586 35.732 341.586 33.524C341.586 31.364 341.13 29.444 340.218 27.764C339.354 26.036 338.178 24.692 336.69 23.732C335.202 22.724 333.546 22.22 331.722 22.22C329.85 22.22 328.17 22.724 326.682 23.732C325.194 24.692 324.018 26.036 323.154 27.764C322.29 29.444 321.858 31.388 321.858 33.596Z" fill="white"/>
<path d="M375.386 53.108C371.258 53.108 367.706 52.22 364.73 50.444C361.802 48.62 359.546 46.22 357.962 43.244C356.378 40.268 355.586 37.052 355.586 33.596C355.586 30.092 356.378 26.852 357.962 23.876C359.594 20.9 361.874 18.524 364.802 16.748C367.778 14.924 371.306 14.012 375.386 14.012C379.466 14.012 382.97 14.924 385.898 16.748C388.874 18.524 391.154 20.9 392.738 23.876C394.322 26.852 395.114 30.092 395.114 33.596C395.114 37.052 394.322 40.268 392.738 43.244C391.154 46.22 388.874 48.62 385.898 50.444C382.97 52.22 379.466 53.108 375.386 53.108ZM365.522 33.596C365.522 35.804 365.954 37.772 366.818 39.5C367.682 41.18 368.858 42.5 370.346 43.46C371.834 44.42 373.514 44.9 375.386 44.9C377.21 44.9 378.866 44.42 380.354 43.46C381.842 42.452 383.018 41.108 383.882 39.428C384.794 37.7 385.25 35.732 385.25 33.524C385.25 31.364 384.794 29.444 383.882 27.764C383.018 26.036 381.842 24.692 380.354 23.732C378.866 22.724 377.21 22.22 375.386 22.22C373.514 22.22 371.834 22.724 370.346 23.732C368.858 24.692 367.682 26.036 366.818 27.764C365.954 29.444 365.522 31.388 365.522 33.596Z" fill="white"/>
<path d="M436.69 52.388H427.042V31.22C427.042 28.196 426.514 25.988 425.458 24.596C424.402 23.204 422.938 22.508 421.066 22.508C419.77 22.508 418.45 22.844 417.106 23.516C415.81 24.188 414.634 25.124 413.578 26.324C412.522 27.476 411.754 28.82 411.274 30.356V52.388H401.626V14.66H410.338V21.644C411.73 19.292 413.746 17.444 416.386 16.1C419.026 14.708 422.002 14.012 425.314 14.012C427.666 14.012 429.586 14.444 431.074 15.308C432.562 16.124 433.714 17.252 434.53 18.692C435.346 20.084 435.898 21.668 436.186 23.444C436.522 25.22 436.69 27.02 436.69 28.844V52.388Z" fill="white"/>
<g opacity="0.3">
<path d="M13.1268 96.6477C13.1268 97.4477 12.9201 98.121 12.5068 98.6677C12.0934 99.201 11.5334 99.6077 10.8268 99.8877C10.1334 100.168 9.37343 100.308 8.54677 100.308H1.68677V86.1077H9.28677C9.95343 86.1077 10.5268 86.2877 11.0068 86.6477C11.4868 86.9943 11.8601 87.4477 12.1268 88.0077C12.3934 88.5677 12.5268 89.141 12.5268 89.7277C12.5268 90.421 12.3534 91.0743 12.0068 91.6877C11.6601 92.2877 11.1534 92.7343 10.4868 93.0277C11.3001 93.2677 11.9401 93.701 12.4068 94.3277C12.8868 94.9543 13.1268 95.7277 13.1268 96.6477ZM4.44677 88.4677V92.0477H8.12677C8.5801 92.0477 8.97343 91.8877 9.30677 91.5677C9.6401 91.2477 9.80677 90.8077 9.80677 90.2477C9.80677 89.7143 9.65343 89.2877 9.34677 88.9677C9.05343 88.6343 8.68677 88.4677 8.24677 88.4677H4.44677ZM10.3468 96.1277C10.3468 95.6077 10.1868 95.161 9.86677 94.7877C9.54677 94.4143 9.15343 94.2277 8.68677 94.2277H4.44677V97.9677H8.54677C9.05343 97.9677 9.4801 97.7877 9.82677 97.4277C10.1734 97.0677 10.3468 96.6343 10.3468 96.1277Z" fill="white"/>
<path d="M15.1038 102.348C15.5971 102.481 15.9971 102.548 16.3038 102.548C16.6638 102.548 16.9505 102.394 17.1638 102.088C17.3905 101.794 17.6438 101.201 17.9238 100.308L13.7838 89.8277H16.5638L19.3838 97.5677L21.8638 89.8277H24.4238L20.0238 102.388C19.7838 103.108 19.3505 103.701 18.7238 104.168C18.1105 104.648 17.3505 104.888 16.4438 104.888C16.0038 104.888 15.5571 104.814 15.1038 104.668V102.348Z" fill="white"/>
</g>
<g opacity="0.4" clip-path="url(#clip0)">
<path d="M45.4917 108.308L46.7917 105.708L50.9917 97.4076L59.2917 81.1076L38.0917 70.2076L37.7917 72.2076C37.7917 72.4076 37.5917 74.2076 38.5917 76.7076L36.7917 75.7076L37.1917 78.5076C37.1917 78.7076 37.4917 80.6076 38.8917 83.0076C36.8917 84.8076 35.3917 87.2076 34.4917 89.7076C33.5917 92.3076 33.2917 95.0076 33.6917 97.7076C34.0917 100.408 35.0917 102.908 36.6917 105.208C38.2917 107.408 40.3917 109.208 42.7917 110.508C43.0917 110.608 43.2917 110.808 43.5917 110.908L44.0917 111.208V111.108C44.5917 111.308 45.0917 111.408 45.6917 111.408C46.0917 111.408 46.4917 111.308 46.8917 111.208C47.8917 110.908 48.6917 110.208 49.2917 109.208C47.9917 109.008 46.6917 108.708 45.4917 108.308ZM45.9917 82.1076C48.9917 81.1076 52.2917 81.2076 55.2917 82.4076L42.6917 107.108C39.7917 105.208 37.6917 102.308 36.7917 99.0076C35.8917 95.7076 36.2917 92.1076 37.7917 89.0076C38.5917 87.4076 39.7917 85.9076 41.1917 84.7076C42.6917 83.6076 44.2917 82.7076 45.9917 82.1076ZM48.2917 78.7076C47.1917 78.8076 46.1917 79.1076 45.1917 79.4076C44.9917 79.5076 44.7917 79.5076 44.5917 79.6076C42.4917 77.9076 41.5917 76.3076 41.0917 75.0076L48.2917 78.7076Z" fill="white"/>
<path d="M66.4916 89.9076C65.2916 86.2076 62.6916 83.1076 59.3916 81.1076H59.2916L50.9916 97.4076L59.2916 101.608C57.8916 103.508 55.9916 105.008 53.6916 105.708C51.3916 106.408 48.9916 106.408 46.7916 105.608L45.4916 108.308C46.6916 108.808 47.9916 109.108 49.2916 109.208C49.6916 109.208 49.9916 109.208 50.3916 109.208C52.6916 109.208 54.8916 108.608 56.9916 107.508C58.9916 106.408 60.6916 104.808 61.9916 102.908L64.8916 104.408L65.5916 103.108C67.5916 98.9076 67.9916 94.2076 66.4916 89.9076ZM52.2916 94.8076L57.9916 83.7076C60.6916 85.3076 62.6916 87.9076 63.6916 90.8076C64.6916 93.9076 64.5916 97.3076 63.3916 100.408L52.2916 94.8076Z" fill="#D2D3ED"/>
<path d="M49.9916 87.4076C50.2916 86.2076 49.5916 85.0076 48.3916 84.7076C47.1916 84.4076 45.9916 85.1076 45.6916 86.3076C45.3916 87.5076 46.0916 88.7076 47.2916 89.0076C48.4916 89.3076 49.6916 88.6076 49.9916 87.4076Z" fill="white"/>
<path d="M82.5916 97.1076C83.1916 97.1076 83.7916 97.0076 84.2916 96.7076C84.7916 96.4076 85.2917 96.0076 85.6917 95.5076L87.7916 97.5076C87.1916 98.2076 86.3916 98.8076 85.4916 99.3076C84.4916 99.7076 83.5916 100.008 82.4916 100.008C81.4916 100.008 80.5916 99.8076 79.7916 99.5076C78.9916 99.2076 78.1916 98.7076 77.5916 98.1076C76.9916 97.5076 76.4917 96.8076 76.1917 96.0076C75.7917 95.2076 75.6917 94.3076 75.6917 93.4076C75.6917 92.5076 75.8917 91.6076 76.1917 90.8076C76.5917 90.0076 76.9916 89.3076 77.5916 88.7076C78.1916 88.1076 78.8916 87.7076 79.7916 87.3076C80.5916 87.0076 81.4916 86.8076 82.4916 86.8076C82.9916 86.8076 83.4916 86.9076 84.0916 87.0076C84.6916 87.1076 85.0916 87.3076 85.5916 87.5076C86.0916 87.7076 86.4916 88.0076 86.8916 88.3076C87.2916 88.6076 87.5916 88.9076 87.8916 89.3076L85.7916 91.4076C85.3916 90.8076 84.7916 90.4076 84.2916 90.1076C83.7916 89.8076 83.1916 89.7076 82.4916 89.7076C81.9916 89.7076 81.4916 89.8076 81.0916 90.0076C80.6916 90.2076 80.2916 90.4076 79.9916 90.8076C79.6916 91.1076 79.3917 91.5076 79.1917 92.0076C78.9917 92.4076 78.8916 92.9076 78.8916 93.5076C78.8916 94.0076 78.9917 94.5076 79.1917 95.0076C79.3917 95.4076 79.6916 95.8076 79.9916 96.1076C80.2916 96.4076 80.6917 96.7076 81.1917 96.9076C81.5917 97.0076 82.0916 97.1076 82.5916 97.1076ZM88.9916 99.8076V90.2076H91.8916V91.2076C92.1916 90.8076 92.5916 90.5076 92.9916 90.3076C93.3916 90.1076 93.8916 90.0076 94.3916 90.0076C94.6916 90.0076 94.8916 90.0076 95.0916 90.1076C95.2916 90.1076 95.3916 90.2076 95.4916 90.3076V92.9076C95.2916 92.8076 95.0916 92.7076 94.7916 92.7076C94.5916 92.6076 94.2916 92.6076 94.0916 92.6076C93.5916 92.6076 93.1916 92.7076 92.7916 92.9076C92.3916 93.1076 92.0916 93.4076 91.8916 93.8076V99.9076H88.9916V99.8076ZM99.7916 99.9076L96.0916 90.1076H99.3916L101.492 96.2076L103.992 90.1076H107.192L102.792 100.308C102.292 101.508 101.592 102.408 100.892 103.008C100.192 103.508 99.2917 103.808 98.0917 103.808C97.8917 103.808 97.5916 103.808 97.3916 103.808C97.1916 103.808 96.9916 103.808 96.8916 103.708V101.208C96.9916 101.208 97.1916 101.208 97.2916 101.308C97.3916 101.308 97.5916 101.308 97.7916 101.308C98.2916 101.308 98.6916 101.208 98.9916 101.008C99.3916 100.608 99.5916 100.308 99.7916 99.9076ZM107.992 103.608V90.2076H110.892V90.9076C111.292 90.6076 111.692 90.4076 112.092 90.3076C112.492 90.2076 112.992 90.1076 113.492 90.1076C114.192 90.1076 114.792 90.2076 115.392 90.5076C115.992 90.8076 116.492 91.1076 116.992 91.6076C117.392 92.0076 117.792 92.6076 118.092 93.2076C118.392 93.8076 118.492 94.4076 118.492 95.1076C118.492 95.8076 118.392 96.4076 118.092 97.0076C117.792 97.6076 117.492 98.1076 116.992 98.6076C116.592 99.0076 115.992 99.4076 115.392 99.6076C114.792 99.9076 114.092 100.008 113.492 100.008C113.092 100.008 112.592 99.9076 112.192 99.8076C111.792 99.7076 111.392 99.5076 110.992 99.3076V103.608H107.992ZM112.992 92.5076C112.592 92.5076 112.192 92.6076 111.892 92.7076C111.592 92.8076 111.292 93.0076 110.992 93.3076V96.7076C111.292 96.9076 111.592 97.1076 111.892 97.2076C112.292 97.3076 112.592 97.4076 112.992 97.4076C113.692 97.4076 114.292 97.2076 114.792 96.7076C115.292 96.2076 115.492 95.6076 115.492 95.0076C115.492 94.3076 115.292 93.7076 114.792 93.3076C114.292 92.8076 113.692 92.5076 112.992 92.5076ZM120.792 96.8076V92.6076H118.792V90.1076H120.792V87.6076L123.692 87.0076V90.1076H126.392V92.6076H123.692V96.3076C123.692 96.7076 123.792 97.0076 123.992 97.2076C124.192 97.4076 124.492 97.5076 124.992 97.5076C125.192 97.5076 125.392 97.5076 125.692 97.5076C125.892 97.5076 126.092 97.4076 126.392 97.3076V99.7076C126.092 99.8076 125.792 99.9076 125.392 99.9076C124.992 100.008 124.592 100.008 124.392 100.008C123.192 100.008 122.392 99.7076 121.792 99.2076C121.092 98.6076 120.792 97.9076 120.792 96.8076ZM127.092 95.0076C127.092 94.3076 127.192 93.7076 127.492 93.1076C127.792 92.5076 128.092 91.9076 128.592 91.5076C129.092 91.1076 129.592 90.7076 130.292 90.4076C130.892 90.1076 131.592 90.0076 132.392 90.0076C133.092 90.0076 133.792 90.1076 134.392 90.4076C134.992 90.7076 135.592 91.0076 136.092 91.5076C136.592 91.9076 136.892 92.5076 137.192 93.1076C137.492 93.7076 137.592 94.4076 137.592 95.0076C137.592 95.7076 137.492 96.3076 137.192 97.0076C136.892 97.6076 136.592 98.1076 136.092 98.6076C135.592 99.0076 135.092 99.4076 134.392 99.7076C133.792 100.008 133.092 100.108 132.392 100.108C131.692 100.108 130.992 100.008 130.292 99.7076C129.692 99.4076 129.092 99.1076 128.592 98.6076C128.092 98.2076 127.792 97.6076 127.492 97.0076C127.292 96.3076 127.092 95.7076 127.092 95.0076ZM132.292 97.4076C132.992 97.4076 133.492 97.2076 133.992 96.7076C134.492 96.2076 134.692 95.7076 134.692 95.0076C134.692 94.3076 134.492 93.7076 133.992 93.3076C133.592 92.8076 132.992 92.6076 132.292 92.6076C131.592 92.6076 131.092 92.8076 130.592 93.3076C130.192 93.8076 129.892 94.4076 129.892 95.0076C129.892 95.7076 130.092 96.3076 130.592 96.7076C131.092 97.2076 131.692 97.4076 132.292 97.4076Z" fill="white"/>
<path d="M141.292 100.008V87.2076H147.992C148.592 87.2076 149.192 87.3076 149.692 87.5076C150.192 87.7076 150.692 88.0076 151.092 88.4076C151.492 88.8076 151.792 89.2076 151.992 89.7076C152.192 90.2076 152.292 90.7076 152.292 91.3076C152.292 91.9076 152.192 92.4076 151.992 92.9076C151.792 93.4076 151.492 93.8076 151.092 94.2076C150.692 94.6076 150.292 94.8076 149.692 95.0076C149.192 95.2076 148.592 95.3076 147.992 95.3076H144.392V99.9076H141.292V100.008ZM147.692 89.9076H144.492V92.8076H147.692C148.092 92.8076 148.492 92.7076 148.792 92.4076C149.092 92.1076 149.192 91.8076 149.192 91.4076C149.192 91.0076 149.092 90.6076 148.792 90.3076C148.492 90.0076 148.092 89.9076 147.692 89.9076ZM156.492 100.108C155.492 100.108 154.592 99.8076 153.992 99.3076C153.292 98.7076 152.992 98.0076 152.992 97.2076C152.992 96.3076 153.292 95.6076 153.992 95.1076C154.692 94.6076 155.692 94.3076 156.892 94.3076C157.292 94.3076 157.592 94.3076 157.992 94.4076C158.392 94.4076 158.692 94.5076 159.092 94.6076V94.1076C159.092 93.6076 158.892 93.3076 158.592 93.0076C158.292 92.8076 157.792 92.6076 157.192 92.6076C156.792 92.6076 156.392 92.7076 155.892 92.8076C155.392 92.9076 154.892 93.1076 154.292 93.4076L153.192 91.2076C153.992 90.8076 154.692 90.6076 155.492 90.4076C156.292 90.2076 156.992 90.1076 157.692 90.1076C158.992 90.1076 160.092 90.4076 160.792 91.1076C161.492 91.7076 161.892 92.6076 161.892 93.8076V100.008H158.992V99.4076C158.592 99.7076 158.192 99.9076 157.792 100.008C157.492 100.108 157.092 100.108 156.492 100.108ZM155.792 97.1076C155.792 97.4076 155.892 97.6076 156.192 97.8076C156.492 98.0076 156.792 98.1076 157.292 98.1076C157.692 98.1076 157.992 98.1076 158.292 98.0076C158.592 97.9076 158.892 97.8076 159.192 97.7076V96.5076C158.892 96.4076 158.592 96.4076 158.292 96.3076C157.992 96.3076 157.692 96.2076 157.392 96.2076C156.892 96.2076 156.492 96.3076 156.192 96.5076C155.992 96.5076 155.792 96.8076 155.792 97.1076ZM163.792 100.008V90.3076H166.692V91.3076C166.992 90.9076 167.392 90.6076 167.792 90.4076C168.192 90.2076 168.692 90.1076 169.192 90.1076C169.492 90.1076 169.692 90.1076 169.892 90.2076C170.092 90.2076 170.192 90.3076 170.292 90.4076V93.0076C170.092 92.9076 169.892 92.8076 169.592 92.8076C169.392 92.7076 169.092 92.7076 168.892 92.7076C168.392 92.7076 167.992 92.8076 167.592 93.0076C167.192 93.2076 166.892 93.5076 166.692 93.9076V100.008H163.792V100.008ZM171.692 100.008V90.3076H174.592V91.3076C174.892 90.9076 175.292 90.6076 175.692 90.4076C176.092 90.2076 176.592 90.1076 177.092 90.1076C177.392 90.1076 177.592 90.1076 177.792 90.2076C177.992 90.2076 178.092 90.3076 178.192 90.4076V93.0076C177.992 92.9076 177.792 92.8076 177.492 92.8076C177.292 92.7076 176.992 92.7076 176.792 92.7076C176.292 92.7076 175.892 92.8076 175.492 93.0076C175.092 93.2076 174.792 93.5076 174.592 93.9076V100.008H171.692V100.008ZM178.792 95.2076C178.792 94.5076 178.892 93.9076 179.192 93.3076C179.492 92.7076 179.792 92.1076 180.292 91.7076C180.792 91.3076 181.292 90.9076 181.992 90.6076C182.592 90.3076 183.292 90.2076 184.092 90.2076C184.792 90.2076 185.492 90.3076 186.092 90.6076C186.692 90.9076 187.292 91.2076 187.792 91.7076C188.292 92.1076 188.592 92.7076 188.892 93.3076C189.192 93.9076 189.292 94.6076 189.292 95.2076C189.292 95.8076 189.192 96.5076 188.892 97.2076C188.592 97.8076 188.292 98.3076 187.792 98.8076C187.292 99.2076 186.792 99.6076 186.092 99.9076C185.492 100.208 184.792 100.308 184.092 100.308C183.392 100.308 182.692 100.208 181.992 99.9076C181.392 99.6076 180.792 99.3076 180.292 98.8076C179.792 98.4076 179.492 97.8076 179.192 97.2076C178.892 96.5076 178.792 95.8076 178.792 95.2076ZM183.992 97.6076C184.692 97.6076 185.192 97.4076 185.692 96.9076C186.192 96.4076 186.392 95.9076 186.392 95.2076C186.392 94.5076 186.192 93.9076 185.692 93.5076C185.292 93.0076 184.692 92.8076 183.992 92.8076C183.292 92.8076 182.792 93.0076 182.292 93.5076C181.892 94.0076 181.592 94.6076 181.592 95.2076C181.592 95.9076 181.792 96.5076 182.292 96.9076C182.792 97.4076 183.292 97.6076 183.992 97.6076ZM191.592 97.0076V92.8076H189.692V90.3076H191.592V87.8076L194.492 87.2076V90.3076H197.192V92.8076H194.492V96.5076C194.492 96.9076 194.592 97.2076 194.792 97.4076C194.992 97.6076 195.292 97.7076 195.792 97.7076C195.992 97.7076 196.192 97.7076 196.492 97.7076C196.692 97.7076 196.892 97.6076 197.192 97.5076V99.9076C196.892 100.008 196.592 100.108 196.192 100.108C195.792 100.208 195.392 100.208 195.192 100.208C193.992 100.208 193.192 99.9076 192.592 99.4076C191.892 98.8076 191.592 98.0076 191.592 97.0076Z" fill="white"/>
</g>
<defs>
<clipPath id="clip0">
<rect width="165" height="43" fill="white" transform="translate(32.7916 69.3076)"/>
</clipPath>
</defs>
</svg>
